<svg id="discount_1_" data-name="discount (1)" xmlns="http://www.w3.org/2000/svg" width="51.159" height="40" viewBox="0 0 51.159 40">
  <path id="Path_55777" data-name="Path 55777" d="M98.762,81.7c0,1.475-2.527,2.644-2.839,4.025-.322,1.425,1.441,3.578.823,4.864-.627,1.306-3.409,1.259-4.3,2.381s-.236,3.842-1.358,4.742-3.6-.352-4.9.279c-1.279.618-1.853,3.356-3.271,3.68-1.373.309-3.067-1.9-4.535-1.9s-3.161,2.208-4.534,1.894c-1.418-.324-1.992-3.06-3.271-3.68-1.3-.631-3.785.618-4.9-.279s-.461-3.614-1.358-4.742-3.674-1.078-4.3-2.38c-.618-1.286,1.147-3.439.823-4.864C60.527,84.348,58,83.178,58,81.7s2.527-2.644,2.839-4.025c.322-1.425-1.441-3.578-.823-4.864.627-1.306,3.409-1.259,4.3-2.381s.236-3.842,1.358-4.742,3.6.352,4.9-.279c1.279-.618,1.853-3.356,3.271-3.68,1.372-.308,3.066,1.9,4.534,1.9s3.162-2.2,4.535-1.894c1.418.324,1.992,3.06,3.271,3.68,1.3.631,3.785-.618,4.9.279s.461,3.614,1.358,4.742,3.674,1.075,4.3,2.381c.618,1.286-1.147,3.439-.823,4.864C96.235,79.059,98.762,80.228,98.762,81.7Z" transform="translate(-52.802 -61.703)" fill="#fed947"/>
  <path id="Path_55778" data-name="Path 55778" d="M98.762,81.711c0,1.475-2.527,2.644-2.839,4.025-.238,1.05.659,2.5.9,3.7a1.825,1.825,0,0,1-.073,1.165,1.4,1.4,0,0,1-.273.379c-.926.926-3.232,1-4.028,2-.9,1.132-.236,3.842-1.358,4.742s-3.6-.352-4.9.279c-1.279.618-1.853,3.356-3.271,3.68-1.373.309-3.067-1.9-4.535-1.9s-3.162,2.208-4.535,1.894c-1.418-.324-1.992-3.06-3.271-3.68-1.3-.631-3.785.618-4.9-.279s-.461-3.614-1.358-4.742c-.8-1-3.1-1.072-4.028-2a1.4,1.4,0,0,1-.273-.379,1.828,1.828,0,0,1-.073-1.167c.239-1.2,1.132-2.649.9-3.7C60.527,84.355,58,83.186,58,81.711c0-1.132,1.489-2.084,2.322-3.088a2.329,2.329,0,0,0,.515-.934,1.9,1.9,0,0,0,.028-.61c-.137-1.377-1.387-3.141-.852-4.253.627-1.306,3.409-1.259,4.3-2.381s.236-3.842,1.358-4.742,3.6.352,4.9-.279c1.279-.618,1.853-3.356,3.271-3.68,1.375-.311,3.07,1.892,4.537,1.892s3.162-2.2,4.535-1.894c1.418.324,1.992,3.06,3.271,3.68,1.3.631,3.785-.618,4.9.279s.461,3.614,1.358,4.742,3.674,1.075,4.3,2.381c.534,1.113-.715,2.876-.852,4.253a1.9,1.9,0,0,0,.028.61,2.329,2.329,0,0,0,.515.934C97.273,79.626,98.762,80.578,98.762,81.711Z" transform="translate(-52.802 -61.711)" fill="#fed947"/>
  <ellipse id="Ellipse_47" data-name="Ellipse 47" cx="13.463" cy="13.535" rx="13.463" ry="13.535" transform="translate(12.058 9.494)" fill="#f8be32"/>
  <path id="Path_55779" data-name="Path 55779" d="M151.572,137.529a13.51,13.51,0,1,1-.34-3.029A13.523,13.523,0,0,1,151.572,137.529Z" transform="translate(-112.588 -117.587)" fill="#2370b5"/>
  <path id="Path_55780" data-name="Path 55780" d="M98.762,215.632c0,1.475-2.527,2.644-2.839,4.025-.238,1.05.659,2.5.9,3.7H59.941c.239-1.2,1.132-2.649.9-3.7-.312-1.38-2.839-2.55-2.839-4.025,0-1.132,1.489-2.084,2.322-3.088a2.329,2.329,0,0,0,.515-.934,1.9,1.9,0,0,0,.028-.61H95.893a1.9,1.9,0,0,0,.028.61,2.329,2.329,0,0,0,.515.934C97.273,213.548,98.762,214.5,98.762,215.632Z" transform="translate(-52.802 -195.632)" fill="#f8be32"/>
  <path id="Path_55781" data-name="Path 55781" d="M151.58,137.529a13.526,13.526,0,1,1-.34-3.029,13.623,13.623,0,0,1,.34,3.029Z" transform="translate(-112.596 -117.587)" fill="#2370b5"/>
  <path id="Path_55782" data-name="Path 55782" d="M151.557,215.573a13.51,13.51,0,0,1-2.449,7.779H127.08A13.587,13.587,0,0,1,125.422,211h25.345a13.386,13.386,0,0,1,.451,1.544A13.623,13.623,0,0,1,151.557,215.573Z" transform="translate(-112.574 -195.632)" fill="#0a56a4"/>
  <path id="Path_55783" data-name="Path 55783" d="M58.659,208.328H7.5l1.968-6.238L7.5,195.97H58.659l-1.968,6.121Z" transform="translate(-7.5 -182.149)" fill="#ff4f04"/>
  <path id="Path_55784" data-name="Path 55784" d="M83.172,233.346a1.673,1.673,0,0,1,1.889,1.822v2a1.673,1.673,0,0,1-1.889,1.822H81.813c-.315,0-.523-.17-.523-.363v-4.917c0-.192.206-.362.523-.362Zm-.683,1.055v3.543h.683c.43,0,.691-.247.691-.772v-2c0-.525-.26-.772-.691-.772Zm3.908-.693c0-.254.3-.362.6-.362s.6.108.6.362v4.913c0,.247-.3.371-.6.371s-.6-.124-.6-.371Zm4.907,3.767c0-.935-2.434-.772-2.434-2.579,0-1.158,1.007-1.6,1.966-1.6.412,0,1.529.077,1.529.679,0,.206-.139.632-.477.632-.276,0-.422-.292-1.052-.292-.545,0-.768.223-.768.463,0,.772,2.434.625,2.434,2.573a1.7,1.7,0,0,1-1.92,1.714c-1.006,0-1.853-.494-1.853-1,0-.263.231-.648.522-.648.361,0,.592.571,1.306.571C90.912,237.986,91.3,237.847,91.3,237.476ZM95.5,234.4c-.437,0-.691.247-.691.772v2.045c0,.525.253.772.7.772.618,0,.653-.471.675-.772s.284-.363.592-.363c.412,0,.606.1.606.571,0,1.029-.829,1.614-1.927,1.614a1.662,1.662,0,0,1-1.844-1.822v-2.05a1.662,1.662,0,0,1,1.844-1.822c1.1,0,1.927.556,1.927,1.536,0,.463-.191.571-.6.571-.322,0-.584-.084-.6-.362A.617.617,0,0,0,95.5,234.4Zm3,2.812v-2.045a1.886,1.886,0,0,1,3.771,0v2.045a1.886,1.886,0,0,1-3.771,0Zm2.573-2.045s-.261-.772-.692-.772-.684.239-.684.772v2.045c0,.532.253.772.684.772s.692-.24.692-.772Zm5.191-1.46c0-.254.291-.362.6-.362s.6.108.6.362v3.5a1.938,1.938,0,0,1-3.869,0v-3.5c0-.254.291-.362.6-.362s.6.108.6.362v3.5a.738.738,0,1,0,1.475,0Zm5.236,4.956-1.459-2.671v2.628c0,.247-.3.371-.6.371s-.595-.127-.595-.371v-4.9c0-.255.3-.371.6-.371.43,0,.592.038.883.6l1.245,2.385v-2.625c0-.254.3-.362.6-.362s.6.108.6.362v4.913c0,.247-.3.371-.6.371A.688.688,0,0,1,111.5,238.665Zm5.994-5.319c.253,0,.36.278.36.532,0,.293-.13.549-.36.549h-1.06v4.195c0,.247-.3.371-.6.371s-.6-.124-.6-.371v-4.195H114.18c-.231,0-.361-.255-.361-.549,0-.254.108-.532.361-.532Z" transform="translate(-73.694 -215.637)" fill="#fff"/>
  <circle id="Ellipse_48" data-name="Ellipse 48" cx="0.772" cy="0.772" r="0.772" transform="translate(44.571 19.228)" fill="#fff"/>
  <circle id="Ellipse_49" data-name="Ellipse 49" cx="0.772" cy="0.772" r="0.772" transform="translate(4.529 19.228)" fill="#fff"/>
</svg>
