<svg xmlns="http://www.w3.org/2000/svg" xmlns:xlink="http://www.w3.org/1999/xlink" width="220" height="88" viewBox="0 0 220 88">
  <defs>
    <filter id="Path_63656" x="0" y="0" width="220" height="88" filterUnits="userSpaceOnUse">
      <feOffset input="SourceAlpha"/>
      <feGaussianBlur stdDeviation="3" result="blur"/>
      <feFlood flood-opacity="0.086"/>
      <feComposite operator="in" in2="blur"/>
      <feComposite in="SourceGraphic"/>
    </filter>
  </defs>
  <g id="Group_9513" data-name="Group 9513" transform="translate(9 9)">
    <g transform="matrix(1, 0, 0, 1, -9, -9)" filter="url(#Path_63656)">
      <path id="Path_63656-2" data-name="Path 63656" d="M20,0H182a20,20,0,0,1,20,20V50a20,20,0,0,1-20,20H20A20,20,0,0,1,0,50V20A20,20,0,0,1,20,0Z" transform="translate(9 9)" fill="#fff"/>
    </g>
    <g id="Group_9515" data-name="Group 9515" transform="translate(5.422 -2)">
      <g id="Group_9514" data-name="Group 9514" transform="translate(8 1)">
        <text id="Google_Play" data-name="Google Play" transform="translate(57 52)" fill="#4f4f4f" font-size="19" font-family="Raleway-SemiBold, Raleway" font-weight="600"><tspan x="0" y="0">Google Play</tspan></text>
        <text id="Get_it_on" data-name="Get it on" transform="translate(57 27)" fill="#a2a2a2" font-size="12" font-family="Raleway-Medium, Raleway" font-weight="500"><tspan x="0" y="0">GET IT ON</tspan></text>
      </g>
      <g id="google-play" transform="translate(17.578 17)">
        <path id="Path_55613" data-name="Path 55613" d="M29.485,14.831a3.237,3.237,0,0,1-1.658,2.818L19.454,22.3,12.37,14.831,19.454,7.36l8.372,4.653a3.237,3.237,0,0,1,1.658,2.818Z" transform="translate(5.937 4.49)" fill="#ffc107"/>
        <path id="Path_55614" data-name="Path 55614" d="M19.307,18.949,1.918,37.288A3.138,3.138,0,0,1,1,35.05V2.848A3.138,3.138,0,0,1,1.918.61Z" transform="translate(-1 0.372)" fill="#03a9f4"/>
        <path id="Path_55615" data-name="Path 55615" d="M18.959,12l7.084,7.471C4.834,31.1,3.945,32.846,1.57,30.339Z" transform="translate(-0.652 7.321)" fill="#f44336"/>
        <path id="Path_55616" data-name="Path 55616" d="M26.043,11.85l-7.084,7.471L1.57.982A3.2,3.2,0,0,1,5.434.4Z" transform="translate(-0.652 0)" fill="#4caf50"/>
      </g>
    </g>
  </g>
</svg>
