<svg id="hide_pwd" xmlns="http://www.w3.org/2000/svg" width="24" height="24" viewBox="0 0 24 24">
  <rect id="Rectangle_1617" data-name="Rectangle 1617" width="24" height="24" fill="#fff" opacity="0"/>
  <g id="Group_816" data-name="Group 816" transform="translate(3.2 4)">
    <path id="Path_2193" data-name="Path 2193" d="M768.855,384.131l-1.02,2.039a3.662,3.662,0,0,1,2.847-5.693l-1.022,2.042A2.034,2.034,0,0,0,768.855,384.131Z" transform="translate(-761.899 -376.083)" fill="rgba(131,132,147,0.59)"/>
    <path id="Path_2194" data-name="Path 2194" d="M775.008,378a9.581,9.581,0,0,1,.992.058l-.8,1.592c-.066,0-.13-.013-.2-.013a7.994,7.994,0,0,0-7.216,4.5,7.965,7.965,0,0,0,3.405,3.527l-.733,1.465a9.664,9.664,0,0,1-4.456-4.993A9.676,9.676,0,0,1,775.008,378Z" transform="translate(-766.008 -376.083)" fill="rgba(131,132,147,0.59)"/>
    <path id="Path_2195" data-name="Path 2195" d="M767.245,376.665l-1.478,2.955.363-.726a9.649,9.649,0,0,1,4.988,5.242,9.676,9.676,0,0,1-9,6.136,9.507,9.507,0,0,1-1.607-.139l-1.349,2.7L758,392.246l8.082-16.163Zm-5.127,11.153a3.436,3.436,0,0,1-.434-.031l.822-1.645a2.044,2.044,0,0,0,1.658-2.006,1.99,1.99,0,0,0-.22-.869l-3.161,6.321.505-1.011a7.611,7.611,0,0,0,.83.06,7.985,7.985,0,0,0,7.216-4.5,7.939,7.939,0,0,0-3.935-3.78l-.623,1.246a7.053,7.053,0,0,1,1.024,2.533S764.15,387.815,762.118,387.818Z" transform="translate(-753.118 -376.083)" fill="rgba(131,132,147,0.59)"/>
  </g>
</svg>
