<svg xmlns="http://www.w3.org/2000/svg" xmlns:xlink="http://www.w3.org/1999/xlink" width="62.559" height="13.857" viewBox="0 0 62.559 13.857">
  <defs>
    <linearGradient id="linear-gradient" x1="0.004" y1="0.494" x2="1" y2="0.494" gradientUnits="objectBoundingBox">
      <stop offset="0" stop-color="#eb712a"/>
      <stop offset="0.231" stop-color="#ef8528"/>
      <stop offset="0.472" stop-color="#f29426"/>
      <stop offset="0.624" stop-color="#f39a24"/>
    </linearGradient>
    <linearGradient id="linear-gradient-2" x1="0.004" y1="0.508" x2="1.007" y2="0.508" gradientUnits="objectBoundingBox">
      <stop offset="0" stop-color="#343434"/>
      <stop offset="0.545" stop-color="#696968"/>
      <stop offset="1" stop-color="#696968"/>
    </linearGradient>
    <linearGradient id="linear-gradient-3" x1="0.001" y1="0.501" x2="1.004" y2="0.501" xlink:href="#linear-gradient-2"/>
    <linearGradient id="linear-gradient-4" x1="-0.007" y1="0.501" x2="0.995" y2="0.501" xlink:href="#linear-gradient-2"/>
  </defs>
  <g id="jumia-seeklogo.com" transform="translate(0 -3.5)">
    <path id="Path_55675" data-name="Path 55675" d="M99.074,3.5a3.274,3.274,0,1,0,3.274,3.274A3.232,3.232,0,0,0,99.074,3.5Z" transform="translate(-39.789 0)" fill="url(#linear-gradient)"/>
    <path id="Path_55676" data-name="Path 55676" d="M92.853,11.316a7.133,7.133,0,0,1-.292.994l-.058.117a.569.569,0,0,1-.585.468h-.175a.505.505,0,0,1-.351-.175.831.831,0,0,1-.117-.351L91.45,11.2a.443.443,0,0,1,.117-.234,3.829,3.829,0,0,1-2.923-3.742c0-.292.058-.526.058-.819H83.908a.569.569,0,0,1-.585-.468l-.234-.994a.877.877,0,0,0-.819-.643h-1.4a.468.468,0,1,0,0,.935h.76a.569.569,0,0,1,.585.468l1.871,7.6a.877.877,0,0,0,.819.643h7.659a.813.813,0,0,0,.819-.643l.643-2.573a4.688,4.688,0,0,1-1.228.292C92.912,11.2,92.912,11.258,92.853,11.316Zm-8.595-2.1c-.058-.292-.175-.585-.234-.819l-.058-.234a.387.387,0,0,1,.058-.351.417.417,0,0,1,.351-.175H84.9a.478.478,0,0,1,.526.468L85.6,9.153a.43.43,0,0,1-.117.351.417.417,0,0,1-.351.175h-.292A.71.71,0,0,1,84.259,9.211Zm1.812,3.508a.417.417,0,0,1-.351.175h-.058a.569.569,0,0,1-.585-.468l-.058-.117c-.058-.292-.175-.643-.292-1.052a.387.387,0,0,1,.058-.351.417.417,0,0,1,.351-.175h.292a.569.569,0,0,1,.585.468l.175,1.169C86.188,12.485,86.188,12.661,86.071,12.719Zm2.163-.234a.4.4,0,0,1-.409.409.452.452,0,0,1-.468-.409l-.175-1.228a.43.43,0,0,1,.117-.351.417.417,0,0,1,.351-.175h.175a.524.524,0,0,1,.526.526v1.228Zm0-3.333a.524.524,0,0,1-.526.526H87.3a.569.569,0,0,1-.585-.468L86.6,8.1a.43.43,0,0,1,.117-.351.505.505,0,0,1,.351-.175h.7a.478.478,0,0,1,.468.526Zm2.222,2.1-.175,1.228a.5.5,0,0,1-.468.409.4.4,0,0,1-.409-.409V11.258a.524.524,0,0,1,.526-.526h.175a.505.505,0,0,1,.351.175Z" transform="translate(-33.393 -0.332)" fill="url(#linear-gradient-2)"/>
    <path id="Path_55677" data-name="Path 55677" d="M99.531,4.3l.819,1.637,1.871.292-1.345,1.286.292,1.812L99.531,8.51l-1.637.819.292-1.812L96.9,6.229l1.812-.292Z" transform="translate(-40.246 -0.332)" fill="#fff"/>
    <ellipse id="Ellipse_8" data-name="Ellipse 8" cx="1.403" cy="1.462" rx="1.403" ry="1.462" transform="translate(50.632 14.433)" fill="url(#linear-gradient-3)"/>
    <ellipse id="Ellipse_9" data-name="Ellipse 9" cx="1.403" cy="1.462" rx="1.403" ry="1.462" transform="translate(57.414 14.433)" fill="url(#linear-gradient-4)"/>
    <g id="Group_8492" data-name="Group 8492" transform="translate(0 5.722)">
      <path id="Path_55678" data-name="Path 55678" d="M20.928,16.112a5.137,5.137,0,0,1-2.982.643H15.14a4.513,4.513,0,0,1-.877-.117c-.292-.058-.585-.175-.819-.234a2.1,2.1,0,0,1-.7-.468,2.4,2.4,0,0,1-.468-.76,2.947,2.947,0,0,1-.175-1.111V7.4h1.754v6.607c0,.7.643,1.052,1.988,1.052h2.4q1.929,0,1.929-1.052V7.4h1.754v6.724A2.381,2.381,0,0,1,20.928,16.112Z" transform="translate(-5.026 -7.342)" fill="#0f0e0e"/>
      <path id="Path_55679" data-name="Path 55679" d="M43.359,16.83V10.691l-3.8,5.613a1.78,1.78,0,0,1-.468.468.988.988,0,0,1-.585.175,1.239,1.239,0,0,1-1.052-.585l-3.8-5.73v6.2H31.9V8.352a1.01,1.01,0,0,1,.292-.76.968.968,0,0,1,.7-.292,1.249,1.249,0,0,1,.994.468l4.736,6.782L43.3,7.826a1.054,1.054,0,0,1,.935-.526.968.968,0,0,1,.7.292,1.157,1.157,0,0,1,.292.819v8.361H43.359Z" transform="translate(-13.249 -7.3)" fill="#0f0e0e"/>
      <path id="Path_55680" data-name="Path 55680" d="M57.5,16.813V7.4h1.754v9.413Z" transform="translate(-23.882 -7.342)" fill="#0f0e0e"/>
      <path id="Path_55681" data-name="Path 55681" d="M73.466,16.872,72,14.3h-5.5l-1.4,2.573H63l5.262-8.828a1.09,1.09,0,0,1,1.988,0l5.145,8.828Zm-4.21-7.133-1.7,2.806h3.391Z" transform="translate(-26.166 -7.342)" fill="#0f0e0e"/>
      <path id="Path_55682" data-name="Path 55682" d="M5.32,12.6c0,2.865-1.052,4.093-2.923,4.5a15.608,15.608,0,0,1-2.4.351V15.527a12.524,12.524,0,0,0,2.514-.409c.643-.234,1.111-.877,1.111-2.514l.058-3.45V7.4H5.437Z" transform="translate(0 -7.342)" fill="#0f0e0e"/>
    </g>
  </g>
</svg>
