<svg xmlns="http://www.w3.org/2000/svg" enable-background="new 0 0 47.5 47.5" viewBox="0 0 47.5 47.5"><defs><clipPath id="a"><path d="M 0,38 38,38 38,0 0,0 0,38 Z"/></clipPath></defs><g clip-path="url(#a)" transform="matrix(1.25 0 0 -1.25 0 47.5)"><path fill="#bcbec0" d="m 0,0 c -4.612,0 -8.483,-3.126 -9.639,-7.371 l 3.855,-1.052 C -5.09,-5.875 -2.767,-4 0,-4 c 3.313,0 6,-2.687 6,-6 l 0,-10 4,0 0,10 C 10,-4.477 5.523,0 0,0" transform="translate(19 37)"/><path fill="#ffac33" d="m 0,0 c 0,-2.209 -1.791,-4 -4,-4 l -16,0 c -2.209,0 -4,1.791 -4,4 l 0,10 c 0,2.209 1.791,4 4,4 l 16,0 c 2.209,0 4,-1.791 4,-4 L 0,0 Z" transform="translate(31 5)"/></g></svg>