<svg xmlns="http://www.w3.org/2000/svg" width="650.208" height="233.931" viewBox="0 0 650.208 233.931">
  <g id="Sale_Hunter_Semi_Horizontal_Dark" data-name="Sale Hunter Semi Horizontal Dark" transform="translate(3.668 -0.03)">
    <g id="Layer_5" data-name="Layer 5">
      <g id="Group_8511" data-name="Group 8511" opacity="0.1">
        <rect id="Rectangle_1424" data-name="Rectangle 1424" width="79.41" height="27.73" rx="8.86" transform="matrix(0.719, -0.695, 0.695, 0.719, -0.672, 214.034)"/>
        <circle id="Ellipse_28" data-name="Ellipse 28" cx="92.65" cy="92.65" r="92.65" transform="translate(35.26 13.03)" fill="none" stroke="#000" stroke-miterlimit="10" stroke-width="22"/>
        <circle id="Ellipse_29" data-name="Ellipse 29" cx="92.65" cy="92.65" r="92.65" transform="translate(30.02 9.96)" fill="none" stroke="#000" stroke-miterlimit="10" stroke-width="10"/>
      </g>
      <g id="Group_8512" data-name="Group 8512">
        <rect id="Rectangle_1425" data-name="Rectangle 1425" width="79.41" height="27.73" rx="8.86" transform="matrix(0.719, -0.695, 0.695, 0.719, -3.668, 212.033)" fill="#8342fe"/>
        <circle id="Ellipse_30" data-name="Ellipse 30" cx="92.65" cy="92.65" r="92.65" transform="translate(32.26 11.03)" fill="none" stroke="#8342fe" stroke-miterlimit="10" stroke-width="22"/>
        <circle id="Ellipse_31" data-name="Ellipse 31" cx="92.65" cy="92.65" r="92.65" transform="translate(27.02 7.96)" fill="none" stroke="#7619fe" stroke-miterlimit="10" stroke-width="10"/>
      </g>
    </g>
    <g id="Layer_7" data-name="Layer 7">
      <g id="Group_8513" data-name="Group 8513" opacity="0.1">
        <rect id="Rectangle_1426" data-name="Rectangle 1426" width="354.91" height="126.36" transform="translate(291.63 7.67)"/>
        <path id="Path_55719" data-name="Path 55719" d="M252.28,70.85l39.35,63.18V7.67Z"/>
        <ellipse id="Ellipse_32" data-name="Ellipse 32" cx="6.64" cy="6.45" rx="6.64" ry="6.45" transform="translate(262.9 64.4)"/>
      </g>
      <g id="Group_8514" data-name="Group 8514">
        <rect id="Rectangle_1427" data-name="Rectangle 1427" width="354.91" height="126.36" transform="translate(289.63 5.67)" fill="#ff4f04"/>
        <path id="Path_55720" data-name="Path 55720" d="M250.28,68.85l39.35,63.18V5.67Z" fill="#ff4f04"/>
        <ellipse id="Ellipse_33" data-name="Ellipse 33" cx="6.64" cy="6.45" rx="6.64" ry="6.45" transform="translate(260.9 62.4)" fill="#fff"/>
      </g>
    </g>
    <g id="Layer_8" data-name="Layer 8">
      <g id="Group_8515" data-name="Group 8515">
        <path id="Path_55721" data-name="Path 55721" d="M384.6,143.28a44.26,44.26,0,0,1-18.36-3.62,29.56,29.56,0,0,1-12.54-10.3,28.916,28.916,0,0,1-4.69-16.29h18.24a16.12,16.12,0,0,0,4.75,11.2q4.51,4.55,12.48,4.56c4.59,0,8.25-1.08,10.95-3.28a10.85,10.85,0,0,0,4.08-8.84q0-5.8-3.56-9.06a26.9,26.9,0,0,0-9.51-5.29L373.77,98q-10.92-3.81-16.65-9.77t-5.7-15.82a24,24,0,0,1,4-14.37,27.13,27.13,0,0,1,11.3-9.3,42.85,42.85,0,0,1,33.17.16,27.32,27.32,0,0,1,11.32,9.48,26.85,26.85,0,0,1,4.35,14.47h-18.5a13,13,0,0,0-3.83-8.86q-3.71-3.86-10.33-3.87a14.74,14.74,0,0,0-9.53,2.74q-3.86,2.89-3.87,8.43a9.76,9.76,0,0,0,3,7.51,24,24,0,0,0,8.1,4.68q5.12,1.91,11.74,4.08a80.77,80.77,0,0,1,12.82,5.71,26.44,26.44,0,0,1,9.3,8.6q3.49,5.36,3.47,13.72a26.32,26.32,0,0,1-3.82,13.77,27.17,27.17,0,0,1-11.23,10.17Q395.41,143.32,384.6,143.28Z" transform="translate(-42.28 -23.07)" fill="#fff"/>
        <path id="Path_55722" data-name="Path 55722" d="M426.88,141.77,461.71,47.3l19.45.05L515.5,142H497.13l-7.51-21.9-36.88-.1L445,141.82Zm30.62-35.31,27.43.07L471.25,67.18Z" transform="translate(-42.28 -23.07)" fill="#fff"/>
        <path id="Path_55723" data-name="Path 55723" d="M527.66,142l.24-94.56,17.29.05-.21,81,41.88.11v13.5Z" transform="translate(-42.28 -23.07)" fill="#fff"/>
        <path id="Path_55724" data-name="Path 55724" d="M602.09,142.22l.24-94.56,61.74.16V61.74l-44.44-.12-.07,25.94,40.39.1v13.51l-40.39-.1-.07,27.28,44.44.12v13.91Z" transform="translate(-42.28 -23.07)" fill="#fff"/>
      </g>
      <g id="Group_8516" data-name="Group 8516">
        <path id="Path_55725" data-name="Path 55725" d="M384.58,177.28V241h-7.87V212H342.57v29h-7.86V177.28h7.86v27.55h34.14V177.28Z" transform="translate(-42.28 -23.07)" fill="#4a4a4a"/>
        <path id="Path_55726" data-name="Path 55726" d="M425,241.44a26.68,26.68,0,0,1-12.49-2.65,21.64,21.64,0,0,1-8.12-7.18A31.389,31.389,0,0,1,400,221.34a49.448,49.448,0,0,1-1.4-11.84V177.28h7.86V209.5a44.94,44.94,0,0,0,.91,9.1,25.4,25.4,0,0,0,3,7.94,15.53,15.53,0,0,0,5.67,5.57,17.69,17.69,0,0,0,8.91,2.06,17.48,17.48,0,0,0,9-2.11,15.749,15.749,0,0,0,5.67-5.65,26,26,0,0,0,3-7.94,43.89,43.89,0,0,0,.91-9V177.28h7.86V209.5a50.5,50.5,0,0,1-1.44,12.24,29.71,29.71,0,0,1-4.58,10.19,22.28,22.28,0,0,1-8.17,6.95,26.539,26.539,0,0,1-12.2,2.56Z" transform="translate(-42.28 -23.07)" fill="#4a4a4a"/>
        <path id="Path_55727" data-name="Path 55727" d="M473.21,192.18V241h-7.86V177.28H472l37.9,49.8V177.37h7.86V241H510.6Z" transform="translate(-42.28 -23.07)" fill="#4a4a4a"/>
        <path id="Path_55728" data-name="Path 55728" d="M577.31,184.46h-21.4V241h-7.86V184.46H526.66v-7.18h50.65Z" transform="translate(-42.28 -23.07)" fill="#4a4a4a"/>
        <path id="Path_55729" data-name="Path 55729" d="M628.31,233.81V241h-42.1V177.28h41.31v7.18H594.07V205.1h29.09v6.73H594.07v22Z" transform="translate(-42.28 -23.07)" fill="#4a4a4a"/>
        <path id="Path_55730" data-name="Path 55730" d="M639.05,241V177.28H665.6a16.29,16.29,0,0,1,7.51,1.75,19.931,19.931,0,0,1,5.94,4.67,22.229,22.229,0,0,1,3.93,6.55,20.48,20.48,0,0,1,1.39,7.4,22,22,0,0,1-1.61,8.35,19.281,19.281,0,0,1-4.54,6.73,15.909,15.909,0,0,1-6.86,3.85l15,24.41h-8.91l-14.14-22.88h-16.4V241Zm7.86-30.06h18.77a9,9,0,0,0,5.64-1.84,12.19,12.19,0,0,0,3.75-4.89,16,16,0,0,0,1.36-6.55,14,14,0,0,0-1.58-6.59,13.12,13.12,0,0,0-4.1-4.8,9.43,9.43,0,0,0-5.59-1.8H646.91Z" transform="translate(-42.28 -23.07)" fill="#4a4a4a"/>
      </g>
    </g>
  </g>
</svg>
