<svg xmlns="http://www.w3.org/2000/svg" viewBox="0 0 1283.64 149.61">
  <defs>
    <style>
      .cls-1 {
        isolation: isolate;
      }

      .cls-2 {
        opacity: 0.1;
        mix-blend-mode: multiply;
      }

      .cls-3, .cls-4, .cls-6, .cls-7 {
        fill: none;
        stroke-miterlimit: 10;
      }

      .cls-3, .cls-4 {
        stroke: #000;
      }

      .cls-3, .cls-6 {
        stroke-width: 18px;
      }

      .cls-4, .cls-7 {
        stroke-width: 6px;
      }

      .cls-5 {
        fill: #8342fe;
      }

      .cls-6 {
        stroke: #8342fe;
      }

      .cls-7 {
        stroke: #7619fe;
      }

      .cls-8 {
        fill: #ff4f04;
      }

      .cls-9 {
        fill: #fff;
      }
    </style>
  </defs>
  <title>Sale Hunter Horizontal Dark</title>
  <g class="cls-1">
    <g id="Layer_5" data-name="Layer 5">
      <g class="cls-2">
        <rect x="22.59" y="137.71" width="50.75" height="17.72" rx="6.32" transform="translate(-111.61 56.24) rotate(-44.06)"/>
        <circle class="cls-3" cx="82.57" cy="70.23" r="59.22"/>
        <circle class="cls-4" cx="78.22" cy="67.27" r="59.22"/>
      </g>
      <g>
        <rect class="cls-5" x="19.59" y="135.71" width="50.75" height="17.72" rx="6.32" transform="translate(-111.06 53.59) rotate(-44.06)"/>
        <circle class="cls-6" cx="79.57" cy="68.23" r="59.22"/>
        <circle class="cls-7" cx="75.22" cy="65.27" r="59.22"/>
      </g>
    </g>
    <g id="Layer_7" data-name="Layer 7">
      <g class="cls-2">
        <rect x="214.24" y="13.85" width="355.57" height="126.6"/>
        <polygon points="174.81 77.15 214.24 140.45 214.24 13.85 174.81 77.15"/>
        <ellipse cx="192.11" cy="77.15" rx="6.65" ry="6.46"/>
      </g>
      <g>
        <rect class="cls-8" x="212.24" y="11.85" width="355.57" height="126.6"/>
        <polygon class="cls-8" points="172.81 75.15 212.24 138.45 212.24 11.85 172.81 75.15"/>
        <ellipse class="cls-9" cx="190.11" cy="75.15" rx="6.65" ry="6.46"/>
      </g>
    </g>
    <g id="Layer_8" data-name="Layer 8">
      <g>
        <path class="cls-9" d="M282.44,146.58a46,46,0,0,1-19-3.75,30.49,30.49,0,0,1-12.95-10.65q-4.74-6.92-4.85-16.83l18.85.05a16.66,16.66,0,0,0,4.93,11.53q4.67,4.68,12.9,4.71,7.11,0,11.32-3.39a11.24,11.24,0,0,0,4.21-9.14q0-6-3.68-9.36a28,28,0,0,0-9.83-5.47l-13.11-4.5Q260,95.84,254,89.68t-5.89-16.35a24.91,24.91,0,0,1,4.15-14.86A28.07,28.07,0,0,1,264,48.87a44.19,44.19,0,0,1,34.28.16,28.32,28.32,0,0,1,11.7,9.8,27.62,27.62,0,0,1,4.5,15l-19.13,0a13.33,13.33,0,0,0-3.95-9.15q-3.84-4-10.67-4a15.27,15.27,0,0,0-9.85,2.84q-4,3-4,8.71a10,10,0,0,0,3.05,7.76,24.67,24.67,0,0,0,8.36,4.84q5.3,2,12.14,4.22a83,83,0,0,1,13.24,5.89,27.22,27.22,0,0,1,9.61,8.89q3.62,5.53,3.6,14.19a27.34,27.34,0,0,1-3.95,14.22,28.16,28.16,0,0,1-11.61,10.52Q293.61,146.6,282.44,146.58Z" transform="translate(-23.19 -18.35)"/>
        <path class="cls-9" d="M326.14,145l36-97.63,20.11,0,35.48,97.82-19-.05L391,122.56l-38.12-.09-8,22.59Zm31.65-36.49,28.34.07L372,67.93Z" transform="translate(-23.19 -18.35)"/>
        <path class="cls-9" d="M430.29,145.28l.25-97.72,17.87,0-.22,83.77,43.28.11,0,14Z" transform="translate(-23.19 -18.35)"/>
        <path class="cls-9" d="M507.21,145.48l.25-97.73,63.8.17,0,14.38-45.94-.12L525.23,89l41.74.1,0,14-41.74-.1-.07,28.2,45.93.11,0,14.38Z" transform="translate(-23.19 -18.35)"/>
      </g>
      <g>
        <path class="cls-9" d="M711.32,30.54V156.25h-15.5V99.06H628.44v57.19H612.93V30.54h15.51V84.9h67.38V30.54Z" transform="translate(-23.19 -18.35)"/>
        <path class="cls-9" d="M791.1,157.13q-14.64,0-24.64-5.22a42.92,42.92,0,0,1-16-14.16,62.24,62.24,0,0,1-8.79-20.28,98.35,98.35,0,0,1-2.76-23.37V30.54H754.4V94.1a89.06,89.06,0,0,0,1.81,18,49.8,49.8,0,0,0,5.95,15.67,30.56,30.56,0,0,0,11.2,11q7.07,4.08,17.57,4.07,10.68,0,17.75-4.16a31.17,31.17,0,0,0,11.2-11.15,51,51,0,0,0,6-15.67,86.94,86.94,0,0,0,1.8-17.71V30.54h15.51V94.1a99.49,99.49,0,0,1-2.84,24.17,58.55,58.55,0,0,1-9,20.1,44,44,0,0,1-16.11,13.72Q805.24,157.13,791.1,157.13Z" transform="translate(-23.19 -18.35)"/>
        <path class="cls-9" d="M886.22,59.93v96.32H870.71V30.54h13.1l74.78,98.27V30.72H974.1V156.25H960Z" transform="translate(-23.19 -18.35)"/>
        <path class="cls-9" d="M1091.61,44.71H1049.4V156.25h-15.51V44.71H991.67V30.54h99.94Z" transform="translate(-23.19 -18.35)"/>
        <path class="cls-9" d="M1192.24,142.08v14.17h-83V30.54h81.5V44.71h-66V85.43h57.38V98.71H1124.7v43.37Z" transform="translate(-23.19 -18.35)"/>
        <path class="cls-9" d="M1213.44,156.25V30.54h52.38A31.85,31.85,0,0,1,1280.64,34a39.15,39.15,0,0,1,11.72,9.2,43.34,43.34,0,0,1,7.75,12.93,40.35,40.35,0,0,1,2.76,14.6,43,43,0,0,1-3.19,16.47,37.92,37.92,0,0,1-9,13.28,31.39,31.39,0,0,1-13.53,7.61l29.64,48.16h-17.57l-27.92-45.15H1229v45.15ZM1229,96.94h37a17.77,17.77,0,0,0,11.12-3.63,24.29,24.29,0,0,0,7.41-9.65,31.51,31.51,0,0,0,2.67-12.93,27.75,27.75,0,0,0-3.1-13,26.36,26.36,0,0,0-8.1-9.47,18.66,18.66,0,0,0-11-3.54h-36Z" transform="translate(-23.19 -18.35)"/>
      </g>
    </g>
  </g>
</svg>
