<svg id="intro1_-_find_products_easily" data-name="intro1 - find products easily" xmlns="http://www.w3.org/2000/svg" width="573.451" height="515.037" viewBox="0 0 573.451 515.037">
  <g id="Group_8808" data-name="Group 8808" opacity="0">
    <rect id="Rectangle_17529" data-name="Rectangle 17529" width="573.451" height="515.037" fill="#fff"/>
  </g>
  <g id="Group_8850" data-name="Group 8850" transform="translate(28.705 73.971)">
    <g id="Nature_1_" transform="translate(0 306.001)">
      <ellipse id="Ground_1_" cx="252.316" cy="15.089" rx="252.316" ry="15.089" transform="translate(0 66.614)" fill="#e3e5fc"/>
      <g id="Plants_1_" transform="translate(342.064)">
        <path id="Path_62862" data-name="Path 62862" d="M230.309,278.265c7.728-.368,16.377-2.208,21.161-6.808a8.4,8.4,0,0,0,2.76-8.28c-.736-3.5-3.864-6.808-4.6-10.3-.736-3.68,2.392-4.968,3.864-7.912,1.656-3.312.736-7.544-2.208-10.856a14.314,14.314,0,0,0-5.888-3.864c-2.576-.92-5.336-.736-6.808-3.128a6.23,6.23,0,0,1-.552-4.416c.736-3.68,2.76-6.808,4.232-10.12.552-1.288,1.1-2.944-.184-4.232-2.576-2.576-8.832-2.024-11.592-.92a8.807,8.807,0,0,0-5.7,5.7c-.552,2.208-.184,4.968-2.392,6.44-1.472.92-3.68,1.1-5.52,1.472-3.5.92-3.68,3.5-2.76,6.072,1.1,3.312,2.208,6.44.184,9.2-1.84,2.392-5.52,3.68-7.728,5.888a4.145,4.145,0,0,0-1.472,2.576c0,3.68,5.52,6.256,6.072,9.936a26.047,26.047,0,0,1-.368,5.336c-.92,5.888,1.656,12.145,8.648,16.377,6.44,4.048,15.457,4.968,21.713,2.392" transform="translate(-186.883 -206.498)" fill="#e3e5fc"/>
        <g id="Group_8809" data-name="Group 8809" transform="translate(39.01 25.581)">
          <path id="Path_62863" data-name="Path 62863" d="M216.768,265.3h0a.4.4,0,0,1-.368-.368l4.6-44.162a.368.368,0,0,1,.736,0l-4.6,44.162A.4.4,0,0,1,216.768,265.3Z" transform="translate(-216.4 -220.4)" fill="#fff"/>
        </g>
        <g id="Group_8810" data-name="Group 8810" transform="translate(41.218 42.141)">
          <path id="Path_62864" data-name="Path 62864" d="M217.968,235.656c-.184,0-.368,0-.368-.184a.676.676,0,0,1,.184-.552L231.4,229.4a.411.411,0,0,1,.368.736l-13.8,5.52Z" transform="translate(-217.6 -229.4)" fill="#fff"/>
        </g>
        <g id="Group_8811" data-name="Group 8811" transform="translate(42.138 33.125)">
          <path id="Path_62865" data-name="Path 62865" d="M218.468,230.756c-.184,0-.368,0-.368-.184a.676.676,0,0,1,.184-.552L231.9,224.5a.411.411,0,1,1,.368.736l-13.8,5.52Z" transform="translate(-218.1 -224.5)" fill="#fff"/>
        </g>
        <g id="Group_8812" data-name="Group 8812" transform="translate(29.549 38.461)">
          <path id="Path_62866" data-name="Path 62866" d="M223.847,233.1h0l-12.329-4.968a.353.353,0,0,1-.184-.552c0-.184.368-.184.552-.184l12.145,4.968a.353.353,0,0,1,.184.552C224.031,233.1,224.031,233.1,223.847,233.1Z" transform="translate(-211.259 -227.4)" fill="#fff"/>
        </g>
        <g id="Group_8819" data-name="Group 8819" transform="translate(0 27.311)">
          <path id="Path_62867" data-name="Path 62867" d="M227.217,254.755c0-.184,0-.368.184-.368a4.459,4.459,0,0,0-2.024-4.968c-1.288-.92-3.68-1.1-4.232-2.944a3.679,3.679,0,0,1,.368-2.392,9.246,9.246,0,0,0,.92-2.392,1.856,1.856,0,0,0-1.288-2.024,7.423,7.423,0,0,0-2.024,0c-2.392-.184-1.656-2.76-2.208-4.232a2.937,2.937,0,0,0-1.656-1.288,5.23,5.23,0,0,0-2.208.736,2.4,2.4,0,0,1-2.208.184,1.674,1.674,0,0,1-.184-2.024,13.274,13.274,0,0,1,3.5-4.416c.552-.552,1.288-1.1,1.288-1.84a2.523,2.523,0,0,0-1.472-2.392,24.211,24.211,0,0,0-7.176-2.76c-2.576-.552-8.464-.736-8.1,3.312.184,2.392,4.048,6.072,1.1,8.1-1.472.92-4.784.736-3.864,3.128.184.552.552.92.552,1.472.552,2.024-1.288,3.68-1.288,5.52,0,1.656,1.656,2.944,2.76,3.864.552.368,1.1,1.1.92,1.656,0,.368-.368.736-.368,1.1A4.53,4.53,0,0,0,198.7,252c.184,1.472-1.472,1.84-2.024,2.944-1.288,2.76,4.6,2.576,5.888,4.048,1.1,1.288.736,2.944,1.472,4.232,1.656,2.944,6.808,3.5,9.752,3.864a8.377,8.377,0,0,0,5.888-1.472c1.656-1.288,2.208-3.5,3.312-5.152C224.273,258.251,226.481,256.963,227.217,254.755Z" transform="translate(-195.2 -221.341)" fill="#a7adff"/>
          <path id="Path_62868" data-name="Path 62868" d="M214.173,251.157c-.92-1.84-.552-4.048-.368-6.072a3.709,3.709,0,0,1,.552-2.024,2.264,2.264,0,0,1,1.84-.92h.184c.184,0,.184-.184.184-.368a12.149,12.149,0,0,0-.184-2.576c0-1.1,1.288-.184,1.656.184a3.85,3.85,0,0,1,.736,1.1h.184V240.3a1.106,1.106,0,0,1,.184-.736l.552-.552c.552-.552.368-1.656.736-2.392a1.854,1.854,0,0,1,2.024-1.1c1.472.368,1.656,2.208,1.472,3.5a1.691,1.691,0,0,0,.368,1.84c.552.368,4.048-2.208,5.336-2.944a1.693,1.693,0,0,1,1.84-.184c.552.368.368,1.1,0,1.656s1.1,1.1,1.472,1.472c1.288,1.472.552,3.864-.184,5.336a23.982,23.982,0,0,1-3.5,4.048c-1.1.92,1.472,3.128.368,4.232-1.656,1.656-8.1,1.656-10.672,1.288-2.208-.184-3.312-1.84-4.232-3.5Z" transform="translate(-179.764 -209.462)" fill="#f44e4e"/>
          <g id="Group_8813" data-name="Group 8813" transform="translate(36.801 34.151)">
            <path id="Path_62869" data-name="Path 62869" d="M215.568,251.493h-.184a.676.676,0,0,1-.184-.552l7.36-10.856a.411.411,0,1,1,.736.368l-7.36,10.856C215.752,251.309,215.752,251.493,215.568,251.493Z" transform="translate(-215.2 -239.9)" fill="#fff"/>
          </g>
          <g id="Group_8814" data-name="Group 8814" transform="translate(42.138 36.359)">
            <path id="Path_62870" data-name="Path 62870" d="M218.468,242.388a.368.368,0,1,1,0-.736l4.048-.552c.184,0,.368.184.552.368a.4.4,0,0,1-.368.368l-4.232.552Z" transform="translate(-218.1 -241.1)" fill="#fff"/>
          </g>
          <g id="Group_8815" data-name="Group 8815" transform="translate(11.04 15.014)">
            <path id="Path_62871" data-name="Path 62871" d="M213.16,261.333a.642.642,0,0,1-.368-.184l-11.592-31.1a.411.411,0,0,1,.736-.368l11.592,31.1c0,.184,0,.368-.368.552Z" transform="translate(-201.2 -229.5)" fill="#fff"/>
          </g>
          <g id="Group_8816" data-name="Group 8816" transform="translate(10.304 33.415)">
            <path id="Path_62872" data-name="Path 62872" d="M208.712,240.972h0l-7.544-.736a.368.368,0,1,1,0-.736l7.544.736a.368.368,0,0,1,0,.736Z" transform="translate(-200.8 -239.5)" fill="#fff"/>
          </g>
          <g id="Group_8817" data-name="Group 8817" transform="translate(8.28 23.846)">
            <path id="Path_62873" data-name="Path 62873" d="M206.508,236.14h0l-6.44-1.1a.4.4,0,0,1-.368-.368c0-.184.184-.368.552-.368l6.44,1.1a.4.4,0,0,1,.368.368C206.876,235.956,206.692,236.14,206.508,236.14Z" transform="translate(-199.7 -234.3)" fill="#fff"/>
          </g>
          <g id="Group_8818" data-name="Group 8818" transform="translate(16.239 23.892)">
            <path id="Path_62874" data-name="Path 62874" d="M204.347,240.351c-.184,0-.184,0-.184-.184a.345.345,0,0,1,0-.552l5.336-5.152a.39.39,0,1,1,.552.552l-5.336,5.152C204.531,240.167,204.531,240.351,204.347,240.351Z" transform="translate(-204.025 -234.325)" fill="#fff"/>
          </g>
        </g>
      </g>
    </g>
    <g id="UI_3_" transform="translate(4.784 1.656)">
      <g id="E-commerce_Mobile_2_">
        <g id="Group_8827" data-name="Group 8827">
          <path id="Path_62875" data-name="Path 62875" d="M148.477,341.584H40.465c-12.328,0-22.265-9.752-22.265-21.713V62.813C18.2,50.852,28.32,41.1,40.465,41.1H148.477c12.328,0,22.265,9.752,22.265,21.713V320.055C170.742,331.832,160.806,341.584,148.477,341.584Z" transform="translate(-18.2 -41.1)" fill="#e3e5fc"/>
          <path id="Path_62876" data-name="Path 62876" d="M134.272,308.995H45.765c-12.329,0-22.265-9.752-22.265-21.713V68.313C23.5,56.352,33.62,46.6,45.765,46.6h88.692c12.328,0,22.265,9.752,22.265,21.713V287.282C156.721,299.242,146.6,308.995,134.272,308.995Z" transform="translate(-13.748 -36.48)" fill="#fff"/>
          <path id="Path_62877" data-name="Path 62877" d="M81.193,45.976H52.488A1.258,1.258,0,0,1,51.2,44.688h0A1.258,1.258,0,0,1,52.488,43.4H81.193a1.258,1.258,0,0,1,1.288,1.288h0A1.258,1.258,0,0,1,81.193,45.976Z" transform="translate(9.522 -39.168)" fill="#e3e5fc"/>
          <ellipse id="Ellipse_863" data-name="Ellipse 863" cx="7.912" cy="7.728" rx="7.912" ry="7.728" transform="translate(68.451 277.851)" fill="#a7adff"/>
          <path id="Path_62878" data-name="Path 62878" d="M115.667,184.633H47.585A13.786,13.786,0,0,1,33.6,171.017h0A13.786,13.786,0,0,1,47.585,157.4h68.083a13.786,13.786,0,0,1,13.985,13.617h0A13.905,13.905,0,0,1,115.667,184.633Z" transform="translate(-5.263 56.601)" fill="#f44e4e"/>
          <path id="Path_62879" data-name="Path 62879" d="M106.646,72.824H65.612A3.3,3.3,0,0,1,62.3,69.512h0A3.3,3.3,0,0,1,65.612,66.2h41.034a3.3,3.3,0,0,1,3.312,3.312h0A3.3,3.3,0,0,1,106.646,72.824Z" transform="translate(18.847 -20.014)" fill="#a7adff"/>
          <path id="Path_62880" data-name="Path 62880" d="M106.646,81.024H65.612A3.3,3.3,0,0,1,62.3,77.712h0A3.3,3.3,0,0,1,65.612,74.4h41.034a3.3,3.3,0,0,1,3.312,3.312h0A3.3,3.3,0,0,1,106.646,81.024Z" transform="translate(18.847 -13.126)" fill="#a7adff"/>
          <g id="Group_8820" data-name="Group 8820" transform="translate(65.858 180.679)">
            <path id="Path_62881" data-name="Path 62881" d="M59.576,152.372h0a1.114,1.114,0,0,1-.184-1.472l9.384-11.224a1.114,1.114,0,0,1,1.472-.184h0a1.114,1.114,0,0,1,.184,1.472l-9.384,11.224C60.5,152.74,59.944,152.74,59.576,152.372Z" transform="translate(-49.623 -139.291)" fill="#e3e5fc"/>
            <path id="Path_62882" data-name="Path 62882" d="M65.048,152.372h0a1.114,1.114,0,0,0,.184-1.472l-9.384-11.224a1.114,1.114,0,0,0-1.472-.184h0a1.114,1.114,0,0,0-.184,1.472l9.384,11.224A.973.973,0,0,0,65.048,152.372Z" transform="translate(-53.991 -139.291)" fill="#e3e5fc"/>
          </g>
          <g id="Group_8823" data-name="Group 8823" transform="translate(30.177 32.017)">
            <g id="Group_8821" data-name="Group 8821" transform="translate(9.568)">
              <path id="Path_62883" data-name="Path 62883" d="M60.041,73.037H39.8V71.2c0-6.992,4.6-12.7,10.12-12.7s10.12,5.7,10.12,12.7v1.84Zm-16.377-3.68H56.177C55.625,65.308,52.865,62,49.92,62S44.216,65.124,43.664,69.356Z" transform="translate(-39.8 -58.5)" fill="#e3e5fc"/>
            </g>
            <g id="Group_8822" data-name="Group 8822" transform="translate(0 10.304)">
              <path id="Path_62884" data-name="Path 62884" d="M45.64,64.1c-3.128,0-5.7,2.024-5.7,4.416L34.6,99.245c0,2.392,2.576,4.416,5.7,4.416H63.673L57.417,64.1Z" transform="translate(-34.6 -64.1)" fill="#a7adff"/>
              <path id="Path_62885" data-name="Path 62885" d="M61.9,99.245,57.3,68.516c0-2.392-2.576-4.416-5.7-4.416H47l6.256,39.562H56.2C59.329,103.662,61.9,101.638,61.9,99.245Z" transform="translate(-24.183 -64.1)" fill="#978cff"/>
            </g>
          </g>
          <path id="Path_62886" data-name="Path 62886" d="M106.646,111.324H65.612a3.3,3.3,0,0,1-3.312-3.312h0a3.3,3.3,0,0,1,3.312-3.312h41.034a3.3,3.3,0,0,1,3.312,3.312h0A3.3,3.3,0,0,1,106.646,111.324Z" transform="translate(18.847 12.329)" fill="#a7adff"/>
          <path id="Path_62887" data-name="Path 62887" d="M106.646,119.524H65.612a3.3,3.3,0,0,1-3.312-3.312h0a3.3,3.3,0,0,1,3.312-3.312h41.034a3.3,3.3,0,0,1,3.312,3.312h0A3.3,3.3,0,0,1,106.646,119.524Z" transform="translate(18.847 19.217)" fill="#a7adff"/>
          <g id="Group_8826" data-name="Group 8826" transform="translate(30.177 102.86)">
            <g id="Group_8824" data-name="Group 8824" transform="translate(9.568)">
              <path id="Path_62888" data-name="Path 62888" d="M60.041,111.537H39.8V109.7C39.8,102.7,44.4,97,49.92,97s10.12,5.7,10.12,12.7v1.84Zm-16.377-3.68H56.177c-.552-4.048-3.312-7.36-6.256-7.36S44.216,103.808,43.664,107.856Z" transform="translate(-39.8 -97)" fill="#e3e5fc"/>
            </g>
            <g id="Group_8825" data-name="Group 8825" transform="translate(0 10.304)">
              <path id="Path_62889" data-name="Path 62889" d="M45.64,102.6c-3.128,0-5.7,2.024-5.7,4.416L34.6,137.745c0,2.392,2.576,4.416,5.7,4.416H63.673L57.417,102.6Z" transform="translate(-34.6 -102.6)" fill="#fae026"/>
              <path id="Path_62890" data-name="Path 62890" d="M61.9,137.745l-4.6-30.729c0-2.392-2.576-4.416-5.7-4.416H47l6.256,39.562H56.2C59.329,142.162,61.9,140.137,61.9,137.745Z" transform="translate(-24.183 -102.6)" fill="#fdc510"/>
            </g>
          </g>
          <ellipse id="Ellipse_864" data-name="Ellipse 864" cx="8.096" cy="7.912" rx="8.096" ry="7.912" transform="translate(58.146 70.291)" fill="#f44e4e"/>
          <ellipse id="Ellipse_865" data-name="Ellipse 865" cx="8.096" cy="7.912" rx="8.096" ry="7.912" transform="translate(58.146 142.238)" fill="#f44e4e"/>
        </g>
        <path id="Path_62891" data-name="Path 62891" d="M62.136,159.572h0a5.34,5.34,0,0,1-5.336-5.336h0a5.34,5.34,0,0,1,5.336-5.336h0a5.34,5.34,0,0,1,5.336,5.336h0A5.34,5.34,0,0,1,62.136,159.572Z" transform="translate(14.227 49.46)" fill="#4b369d"/>
      </g>
    </g>
    <g id="Characters_1_" transform="translate(148.254 67.713)">
      <g id="Woman_1_">
        <path id="Arm_3_" d="M140.1,161.644c11.592-15.273,37.169-47.29,47.658-63.483a5.18,5.18,0,0,0,1.1-2.76c.184-1.288-.552-2.392-1.1-3.68a24.019,24.019,0,0,1-2.208-8.648,8.976,8.976,0,0,1,.736-4.416,3.093,3.093,0,0,1,3.68-1.472,34.327,34.327,0,0,0,2.944,14.169l3.312-6.072c1.472,6.44-3.312,12.513-5.888,18.769-1.288,3.128-18.033,25.577-19.873,28.337-9.568,16.193-11.96,22.081-21.713,32.385-2.576,2.76-5.336,5.52-8.648,6.992s-7.728,1.472-10.3-1.1Z" transform="translate(-53.113 -76.999)" fill="#eac2ab"/>
        <g id="Leg_3_" transform="translate(181.076 126.181)">
          <path id="Path_62892" data-name="Path 62892" d="M210.2,170.6l11.04,20.977-6.44,5.152L204.5,174.1C204.684,174.1,207.812,170.784,210.2,170.6Z" transform="translate(-171.436 -124.549)" fill="#eac2ab"/>
          <path id="Path_62893" data-name="Path 62893" d="M251.552,192.715s-5.7,2.208-16.561,3.312c-10.856,1.288-25.577.368-28.153-.368-4.048-1.288-1.472-14.353,2.208-14.353,3.68-.184,5.336,5.152,11.592.184,5.336-4.232,10.12,3.128,19.689,4.784S253.76,188.667,251.552,192.715Z" transform="translate(-171.198 -116.487)" fill="#fdc510"/>
          <path id="Path_62894" data-name="Path 62894" d="M203.219,182.792a82.027,82.027,0,0,0,4.048,9.2c2.208,4.048,5.888,7.912,5.336,12.7-.184,1.84-.736,4.048.736,4.968,1.1.552,2.392-.184,3.128-1.288,1.656-2.208,2.392-5.52,4.784-6.808,2.208-1.1,4.784-.368,7.176-.92,3.864-.92,6.256-5.888,10.12-6.808-.184-1.1-1.472-1.656-2.576-2.024-2.208-.92-3.68-3.128-4.968-5.152-4.784-7.544-9.568-15.089-13.065-23.553a44.046,44.046,0,0,0-2.392-5.152,15.82,15.82,0,0,0-3.312-3.68,47.643,47.643,0,0,0-7.728-5.888c-3.68-2.208-8.832-4.232-12.88-1.472-3.128,2.208-5.7,7.36-4.968,11.408.92,4.416,5.152,7.912,7.728,11.04A56.458,56.458,0,0,1,203.219,182.792Z" transform="translate(-186.531 -145.573)" fill="#4b369d"/>
        </g>
        <g id="Leg_2_" transform="translate(125.081 97.833)">
          <path id="Path_62895" data-name="Path 62895" d="M220.72,146.1l24.1,2.024.184,8.832-25.025-3.864C219.984,153.276,219.248,148.492,220.72,146.1Z" transform="translate(-102.587 -116.782)" fill="#eac2ab"/>
          <path id="Path_62896" data-name="Path 62896" d="M252.9,131.516s.552,6.624-1.472,18.4c-1.84,11.96-4.6,25.025-6.624,26.865-2.208,2.024-16.009-.184-15.089-4.048s6.44-4.048,3.5-12.145c-2.576-6.992,5.888-9.568,10.3-19.321C247.753,131.884,249.593,127.836,252.9,131.516Z" transform="translate(-94.291 -130.167)" fill="#fdc510"/>
          <path id="Path_62897" data-name="Path 62897" d="M168.613,172.409c-6.624,2.76-8.648,9.936-10.488,17.3A59.207,59.207,0,0,0,156.1,205.9c0,3.128.552,6.44,2.76,8.464a8.176,8.176,0,0,0,4.416,1.656c11.408,1.472,22.449-5.336,30.361-14.169s13.249-19.873,19.873-29.993c2.944-4.416,6.624-9.016,11.776-9.752,5.7-.552,10.672,4.232,16.009,6.624a56.757,56.757,0,0,0,18.217,4.784c6.44.736,9.936.92,16.193,3.312,2.392.92,5.152,4.416,7.36,5.152,6.808,1.656,2.208-1.84,2.944-3.864,1.1-2.392,2.024-6.256,1.288-8.464a42.524,42.524,0,0,1-1.84-11.776c0-2.576,1.84-4.416,2.944-6.624,2.024-5.336-12.328-2.576-18.217-2.576-6.992,0-13.8-1.472-20.425-3.128-7.544-1.84-15.089-4.232-22.449-6.808-5.336-1.84-11.04-4.048-16.377-2.76-7.544,1.656-12.329,9.2-17.665,15.089-6.072,6.992-10.12,10.856-18.033,14.9" transform="translate(-156.1 -125.611)" fill="#5a54ff"/>
        </g>
        <g id="Head_1_" transform="translate(0 32.355)">
          <path id="Neck_1_" d="M124.6,123.527l4.232,12.7,10.3,2.024-3.312-5.152s-5.336-8.648-3.864-14.353C133.8,112.67,124.6,123.527,124.6,123.527Z" transform="translate(-57.482 -75.837)" fill="#d4a79a"/>
          <path id="Face_1_" d="M130.458,99.5c2.76.552,7.36,3.5,8.28,6.256a14.378,14.378,0,0,0,2.576,5.336c1.656,1.84,3.68,2.76,5.7,4.048s-.736,1.84-1.472,3.128a8,8,0,0,0-.92,4.6c-.184,3.5.92,10.12-1.1,13.065-2.576,4.048-12.512,2.944-15.825,1.1-.736-.368-8.28-4.232-8.1-4.784C119.6,132.437,130.458,99.5,130.458,99.5Z" transform="translate(-61.684 -90.452)" fill="#eac2ab"/>
          <g id="Hair_1_">
            <path id="Path_62898" data-name="Path 62898" d="M139.418,107.127c.552-.736,0-1.84,0-2.76a3.706,3.706,0,0,1,2.024-2.944,27.093,27.093,0,0,1,18.033-5.7c2.576.184,1.84.92,4.232,2.208,2.76,1.656,6.624,8.28,2.576,11.224-4.232,3.128-9.384.368-5.152.736-2.576-.368-3.68,2.024-4.968,4.232-4.784,8.648-3.864,18.953-.92,28.153-14.537-3.5-23.921-14.721-20.609-27.049,1.472-5.336,4.968-13.065.552-17.665-2.76-2.944-7.176-3.312-11.224-2.76a16.114,16.114,0,0,0-10.12,4.968c-4.048,4.784-3.5,12.144-1.288,18.217,2.208,5.888,6.072,11.04,8.28,16.929,1.84,4.784,2.208,11.408-2.024,13.985-3.68,2.392-8.28-.184-12.513-1.472-5.152-1.656-11.408-.92-15.273,3.312-3.864,4.048-4.048,11.96.552,15.273a7.953,7.953,0,0,0-2.208,7.728,6.858,6.858,0,0,0,5.888,4.968c3.68.184,7.176-2.576,10.672-2.208,2.024.368,3.864,1.656,5.7,2.576s4.416,1.1,5.888-.368a16.834,16.834,0,0,0,1.656-3.128c2.392-5.888,8.648-9.016,11.592-14.721,5.7-10.856-1.288-26.865-2.392-38.274-.368-3.68-.184-8.1,2.392-10.488,2.392-2.208,5.336-4.048,7.912-6.072A3.85,3.85,0,0,0,139.418,107.127Z" transform="translate(-88.124 -94.583)" fill="#4b369d"/>
          </g>
          <path id="Ear_1_" d="M126.648,111.693s-6.256-1.472-5.52,3.5,6.808,5.52,6.808,5.52l-1.656-5.888Z" transform="translate(-60.45 -80.38)" fill="#eac2ab"/>
          <path id="Decoration_1_" d="M119.787,100.036s1.472.736.736,3.312c-.92,2.392-5.152,8.28-5.52,6.624s-3.5-.184-2.024-2.576a51.461,51.461,0,0,0,2.576-4.6c1.472-2.76-.368-3.864.552-4.968C117.763,95.62,119.051,99.116,119.787,100.036Z" transform="translate(-67.573 -92.46)" fill="#f44e4e"/>
        </g>
        <path id="Body_1_" d="M140.907,126.315c8.648,2.208,7.544,2.76,14.353,9.016,5.7,5.336,13.617,17.481,16.745,24.841,2.024,4.6,7.728,8.832,10.3,13.249,2.208,3.5,7.912,2.024,9.936,5.52a4.428,4.428,0,0,0,1.1,1.472c.92.552-1.1,2.024-.184,2.392,1.1.368,4.416,5.52,4.968,6.624,1.288,2.208-.368-.184-.368,2.576,0,3.5.92,4.416-.736,7.176-2.024,3.312-2.576,7.176-3.312,11.04-.552,3.128-.736,7.544-2.76,9.936s-5.336,3.312-8.464,3.128c-6.072-.184-12.328-3.5-16.561-8.28-4.968-5.888-5.7-13.985-9.752-20.425-3.68-5.888-9.016-10.12-13.065-15.641-4.232-5.7-7.176-12.512-9.936-19.137-3.312-7.544-7.36-14.353-7.176-23,.184-3.864.92-8.1,3.312-11.04C131.523,122.635,137.411,125.4,140.907,126.315Z" transform="translate(-56.308 -37.254)" fill="#f44e4e"/>
        <g id="Arm_2_" transform="translate(74.082 88.16)">
          <path id="Path_62899" data-name="Path 62899" d="M188.905,177.262c2.76-1.288,6.992-5.888,8.648-7.544-1.656.736-2.944,2.392-4.968,1.84-2.944-.736-5.888-1.472-8.648-2.208-27.233-10.3-37.722-28.889-37.722-28.889s3.68,3.864-7.176-5.7c-10.672-9.568-7.544-.92-7.544-.92A217.879,217.879,0,0,0,152.472,159.6a56.394,56.394,0,0,0,29.073,16.193,62.606,62.606,0,0,0,6.256,1.288A2.333,2.333,0,0,1,188.905,177.262Z" transform="translate(-126.131 -120.423)" fill="#eac2ab"/>
          <path id="Path_62900" data-name="Path 62900" d="M151.782,140.532s-16.009-23.185-22.265-13.065c-6.256,9.936,15.457,31.833,15.457,31.833l10.12-16.561Z" transform="translate(-128.385 -124.91)" fill="#d7384e"/>
        </g>
      </g>
    </g>
    <g id="UI_2_" transform="translate(80.783)">
      <g id="Shopping_bag_1_" transform="translate(195.096 69.389)">
        <g id="Group_8828" data-name="Group 8828" transform="translate(3.13)">
          <path id="Path_62901" data-name="Path 62901" d="M166.7,99.421l-.552-1.656a18.962,18.962,0,0,1-.92-11.408c.92-3.68,2.944-6.44,5.888-7.728,5.7-2.576,12.881,2.024,16.009,9.936l.552,1.656Zm7.728-18.033a4.9,4.9,0,0,0-2.208.552,7.531,7.531,0,0,0-3.864,5.336A15.935,15.935,0,0,0,168.725,95l14.721-6.44C181.238,83.964,177.558,81.388,174.429,81.388Z" transform="translate(-164.727 -77.91)" fill="#e3e5fc"/>
        </g>
        <g id="Group_8829" data-name="Group 8829" transform="translate(0 8.16)">
          <path id="Path_62902" data-name="Path 62902" d="M167.578,89.5c-3.5,1.472-5.336,5.152-4.232,7.912l8.28,39.01c1.1,2.76,4.784,3.864,8.28,2.392L205.3,127.594,180.459,83.8Z" transform="translate(-163.026 -81.122)" fill="#fae026"/>
          <path id="Path_62903" data-name="Path 62903" d="M204.6,119.8,185.465,85.391c-1.1-2.76-4.784-3.864-8.28-2.392L172.4,85.207,197.241,129l2.944-1.288C203.865,126.056,205.705,122.56,204.6,119.8Z" transform="translate(-155.152 -82.344)" fill="#fdc510"/>
        </g>
      </g>
      <g id="Element_1_" transform="translate(113.349)">
        <path id="Path_62904" data-name="Path 62904" d="M164.6,48.3h-43.61A2.479,2.479,0,0,1,118.6,45.72V42.776a2.479,2.479,0,0,1,2.392-2.576H164.6a2.479,2.479,0,0,1,2.392,2.576V45.72A2.479,2.479,0,0,1,164.6,48.3Z" transform="translate(-118.6 -40.2)" fill="#e3e5fc"/>
        <path id="Path_62905" data-name="Path 62905" d="M164.6,55.8h-43.61A2.479,2.479,0,0,1,118.6,53.22V50.276a2.479,2.479,0,0,1,2.392-2.576H164.6a2.479,2.479,0,0,1,2.392,2.576V53.22A2.479,2.479,0,0,1,164.6,55.8Z" transform="translate(-118.6 -33.899)" fill="#e3e5fc"/>
        <path id="Path_62906" data-name="Path 62906" d="M164.6,63.3h-43.61A2.479,2.479,0,0,1,118.6,60.72V57.776a2.479,2.479,0,0,1,2.392-2.576H164.6a2.479,2.479,0,0,1,2.392,2.576V60.72A2.479,2.479,0,0,1,164.6,63.3Z" transform="translate(-118.6 -27.599)" fill="#e3e5fc"/>
        <path id="Path_62907" data-name="Path 62907" d="M164.6,70.8h-43.61A2.479,2.479,0,0,1,118.6,68.22V65.276a2.479,2.479,0,0,1,2.392-2.576H164.6a2.479,2.479,0,0,1,2.392,2.576V68.22A2.6,2.6,0,0,1,164.6,70.8Z" transform="translate(-118.6 -21.298)" fill="#e3e5fc"/>
      </g>
      <g id="Shopping_Cart_1_" transform="translate(0 171.844)">
        <g id="Group_8836" data-name="Group 8836" transform="translate(68.42)">
          <path id="Path_62908" data-name="Path 62908" d="M111.836,187.777h0c-5.52,0-9.936-4.784-9.936-10.488h0c0-5.888,4.416-10.488,9.936-10.488h0c5.52,0,9.936,4.784,9.936,10.488h0C121.773,182.993,117.357,187.777,111.836,187.777Z" transform="translate(-87.7 -105.69)" fill="#e3e5fc"/>
          <g id="Group_8832" data-name="Group 8832" transform="translate(0 10.37)">
            <g id="Group_8830" data-name="Group 8830" transform="translate(21.376 31.051)">
              <path id="Path_62909" data-name="Path 62909" d="M116.288,174.317a7.218,7.218,0,0,1-3.312-.736,12.413,12.413,0,0,1-6.256-5.7l-.92-1.472,14.721-10.3.92,1.472c3.5,5.7,2.944,12.512-1.1,15.273A6.838,6.838,0,0,1,116.288,174.317Zm-5.888-6.808a9.877,9.877,0,0,0,3.864,2.944,4.65,4.65,0,0,0,4.416-.184c2.208-1.472,2.576-5.52.92-9.016Z" transform="translate(-105.8 -156.1)" fill="#e3e5fc"/>
            </g>
            <g id="Group_8831" data-name="Group 8831">
              <path id="Path_62910" data-name="Path 62910" d="M129.085,174.508c2.208-1.656,3.312-4.416,2.024-6.44l-11.04-27.233c-1.1-1.84-4.048-2.208-6.256-.552L96.7,152.243l23.921,28.337Z" transform="translate(-92.069 -139.225)" fill="#a7adff"/>
              <path id="Path_62911" data-name="Path 62911" d="M94.766,154.028l18.4,22.265c1.1,1.84,4.048,2.208,6.256.552l3.312-2.208L98.814,146.3l-2.024,1.472C94.4,149.244,93.478,152.188,94.766,154.028Z" transform="translate(-94.183 -133.282)" fill="#978cff"/>
            </g>
          </g>
          <g id="Group_8835" data-name="Group 8835" transform="translate(32.091)">
            <g id="Group_8833" data-name="Group 8833" transform="translate(3.73)">
              <path id="Path_62912" data-name="Path 62912" d="M115.03,154.218l-.552-1.656a20.037,20.037,0,0,1,0-11.409c1.288-3.68,3.5-6.256,6.44-7.176A9.77,9.77,0,0,1,129.935,136a19.577,19.577,0,0,1,6.072,9.568l.552,1.656Zm8.648-17.113a5.093,5.093,0,0,0-1.656.184c-2.024.552-3.5,2.392-4.416,4.968a15.412,15.412,0,0,0-.368,7.728l15.273-4.968a13.416,13.416,0,0,0-4.232-6.072A7.033,7.033,0,0,0,123.678,137.1Z" transform="translate(-113.65 -133.589)" fill="#e3e5fc"/>
            </g>
            <g id="Group_8834" data-name="Group 8834" transform="translate(0 9.405)">
              <path id="Path_62913" data-name="Path 62913" d="M116.733,143.948c-3.5,1.1-5.7,4.416-4.968,7.544l4.784,39.746c.92,2.944,4.416,4.416,7.912,3.312l26.129-8.464L129.8,139.9Z" transform="translate(-111.623 -137.693)" fill="#fae026"/>
              <path id="Path_62914" data-name="Path 62914" d="M150.389,178.445,134.381,142.38c-.92-2.944-4.416-4.416-7.912-3.312l-4.968,1.656,20.793,46.186,3.128-1.1C149.1,184.7,151.309,181.389,150.389,178.445Z" transform="translate(-103.326 -138.701)" fill="#fdc510"/>
            </g>
          </g>
          <path id="Path_62915" data-name="Path 62915" d="M182.255,200.077H113.436c-5.52,0-9.936-4.784-9.936-10.488h0c0-5.888,4.416-10.488,9.936-10.488h68.819c5.52,0,9.936,4.784,9.936,10.488h0C192.008,195.293,187.591,200.077,182.255,200.077Z" transform="translate(-86.356 -95.357)" fill="#fdc510"/>
          <path id="Path_62916" data-name="Path 62916" d="M154.2,187.277H123.836c-5.52,0-9.936-4.784-9.936-10.488h0c0-5.888,4.416-10.488,9.936-10.488H154.2c5.52,0,9.936,4.784,9.936,10.488h0C164.134,182.493,159.718,187.277,154.2,187.277Z" transform="translate(-77.619 -106.11)" fill="#978cff"/>
          <path id="Path_62917" data-name="Path 62917" d="M185.513,199.877H164.536c-5.52,0-9.936-4.784-9.936-10.488h0c0-5.888,4.416-10.488,9.936-10.488h20.977c5.52,0,9.936,4.784,9.936,10.488h0C195.45,195.093,190.849,199.877,185.513,199.877Z" transform="translate(-43.428 -95.525)" fill="#a7adff"/>
        </g>
        <g id="Shoping_Cart_1_" transform="translate(0 32.39)">
          <g id="Group_8838" data-name="Group 8838" transform="translate(114.821 149.797)">
            <g id="Group_8837" data-name="Group 8837">
              <ellipse id="Ellipse_866" data-name="Ellipse 866" cx="10.304" cy="11.04" rx="10.304" ry="11.04" fill="#4b369d"/>
            </g>
            <ellipse id="Ellipse_867" data-name="Ellipse 867" cx="7.36" cy="7.912" rx="7.36" ry="7.912" transform="translate(2.944 3.128)" fill="#e3e5fc"/>
          </g>
          <g id="Group_8840" data-name="Group 8840" transform="translate(188.424 149.797)">
            <g id="Group_8839" data-name="Group 8839">
              <ellipse id="Ellipse_868" data-name="Ellipse 868" cx="10.304" cy="11.04" rx="10.304" ry="11.04" fill="#4b369d"/>
            </g>
            <ellipse id="Ellipse_869" data-name="Ellipse 869" cx="7.36" cy="7.912" rx="7.36" ry="7.912" transform="translate(2.944 3.128)" fill="#e3e5fc"/>
          </g>
          <g id="Group_8849" data-name="Group 8849">
            <g id="Group_8841" data-name="Group 8841">
              <path id="Path_62918" data-name="Path 62918" d="M171.637,297.493c-1.656,0-19.873-.368-23.553-15.825-1.472-5.888-4.416-23.737-8.1-44.714-4.968-29.441-11.96-69.923-14.169-74.339-3.312-6.808-6.256-8.1-17.113-7.912s-51.338,0-51.706,0v-3.5c.368,0,40.666.184,51.706,0,11.224-.184,15.825,1.288,20.057,9.752,2.208,4.6,7.36,34.041,14.537,75.259,3.5,20.793,6.624,38.641,7.912,44.346,3.128,13.433,20.425,13.249,20.609,13.249h105.62v3.5h-105.8Z" transform="translate(-57 -151.192)" fill="#4b369d"/>
            </g>
            <g id="Group_8848" data-name="Group 8848" transform="translate(70.659 10.135)">
              <g id="Group_8842" data-name="Group 8842">
                <path id="Path_62919" data-name="Path 62919" d="M249.046,221.471h-141.5v-3.5H246.47l14.169-57.962H95.4V156.7H264.871Z" transform="translate(-95.4 -156.7)" fill="#4b369d"/>
              </g>
              <g id="Group_8843" data-name="Group 8843" transform="translate(37.906 1.104)">
                <path id="Path_62920" data-name="Path 62920" d="M116,158.22l3.128-.92,14.9,61.458-3.128.92Z" transform="translate(-116 -157.3)" fill="#4b369d"/>
              </g>
              <g id="Group_8844" data-name="Group 8844" transform="translate(82.067 1.656)">
                <rect id="Rectangle_17530" data-name="Rectangle 17530" width="3.312" height="60.17" fill="#4b369d"/>
              </g>
              <g id="Group_8845" data-name="Group 8845" transform="translate(111.693 1.104)">
                <path id="Path_62921" data-name="Path 62921" d="M156.1,218.758,171,157.3l3.128.92-14.9,61.458Z" transform="translate(-156.1 -157.3)" fill="#4b369d"/>
              </g>
              <g id="Group_8846" data-name="Group 8846" transform="translate(4.968 20.425)">
                <rect id="Rectangle_17531" data-name="Rectangle 17531" width="156.222" height="3.496" fill="#4b369d"/>
              </g>
              <g id="Group_8847" data-name="Group 8847" transform="translate(8.648 41.034)">
                <rect id="Rectangle_17532" data-name="Rectangle 17532" width="148.494" height="3.496" fill="#4b369d"/>
              </g>
            </g>
          </g>
        </g>
      </g>
    </g>
  </g>
  <g id="UI_Location_2_" transform="translate(445.566 274.539)">
    <g id="Location_2_" transform="translate(0 0)">
      <path id="Path_62922" data-name="Path 62922" d="M230.806-199.6c-28.521,0-51.706,23.921-51.706,53.362,0,29.625,37.538,96.972,51.706,96.972,15.641,0,51.706-67.531,51.706-96.972S259.327-199.6,230.806-199.6Zm0,73.235A22.423,22.423,0,0,1,208.541-149a22.423,22.423,0,0,1,22.265-22.633A22.423,22.423,0,0,1,253.071-149,22.423,22.423,0,0,1,230.806-126.365Z" transform="translate(-179.1 199.6)" fill="#978cff"/>
    </g>
  </g>
</svg>
