<svg xmlns="http://www.w3.org/2000/svg" width="307.075" height="444.598" viewBox="0 0 307.075 444.598">
  <g id="Group_8688" data-name="Group 8688" transform="translate(-118.906 -168.282)">
    <g id="Group_8687" data-name="Group 8687" transform="translate(58.88 6.182)">
      <g id="Phone_1" transform="translate(196 162.1)">
        <path id="Path" d="M149.015,346.326H22.087A22.152,22.152,0,0,1,0,324.239V22.087A22.152,22.152,0,0,1,22.087,0H149.015A22.152,22.152,0,0,1,171.1,22.087V324.239A22.216,22.216,0,0,1,149.015,346.326Z" transform="translate(0 0)" fill="#a7adff"/>
        <path id="Path-2" data-name="Path" d="M127.32,302.4H22.087A22.152,22.152,0,0,1,0,280.31V22.087A22.152,22.152,0,0,1,22.087,0H127.32a22.152,22.152,0,0,1,22.087,22.087V280.31A22.216,22.216,0,0,1,127.32,302.4Z" transform="translate(10.847 11.633)" fill="#e3e5fc"/>
        <path id="Path-3" data-name="Path" d="M33.965,2.9H1.178A1.194,1.194,0,0,1,0,1.718v-.54A1.194,1.194,0,0,1,1.178,0H33.965a1.194,1.194,0,0,1,1.178,1.178v.54A1.266,1.266,0,0,1,33.965,2.9Z" transform="translate(67.979 5.056)" fill="#e3e5fc"/>
        <circle id="Oval" cx="8.884" cy="8.884" r="8.884" transform="translate(76.667 320.214)" fill="#e3e5fc"/>
        <path id="Path-4" data-name="Path" d="M95.073,31.56H12.811A12.851,12.851,0,0,1,0,18.75V12.811A12.851,12.851,0,0,1,12.811,0H95.073a12.851,12.851,0,0,1,12.811,12.811V18.75A12.915,12.915,0,0,1,95.073,31.56Z" transform="translate(31.609 246.394)" fill="#5a54ff"/>
        <path id="Path-5" data-name="Path" d="M82.655,7.608H3.092A3.079,3.079,0,0,1,0,4.516V3.092A3.079,3.079,0,0,1,3.092,0H82.655a3.079,3.079,0,0,1,3.092,3.092V4.516A3.079,3.079,0,0,1,82.655,7.608Z" transform="translate(42.653 140.032)" fill="#a7adff"/>
        <path id="Path-6" data-name="Path" d="M82.655,7.608H3.092A3.079,3.079,0,0,1,0,4.516V3.092A3.079,3.079,0,0,1,3.092,0H82.655a3.079,3.079,0,0,1,3.092,3.092V4.516A3.111,3.111,0,0,1,82.655,7.608Z" transform="translate(42.653 157.506)" fill="#fff"/>
        <path id="Path-7" data-name="Path" d="M82.655,7.608H3.092A3.079,3.079,0,0,1,0,4.516V3.092A3.079,3.079,0,0,1,3.092,0H82.655a3.079,3.079,0,0,1,3.092,3.092V4.516A3.079,3.079,0,0,1,82.655,7.608Z" transform="translate(42.653 174.93)" fill="#fff"/>
        <g id="Group" transform="translate(73.778 216.608)">
          <path id="Path-8" data-name="Path" d="M.68,15.11l-.344-.294a.99.99,0,0,1-.147-1.325L10.938.337A.99.99,0,0,1,12.264.189l.344.294a.99.99,0,0,1,.147,1.325L2.005,14.963A.99.99,0,0,1,.68,15.11Z" transform="translate(10.602 0)" fill="#fff"/>
          <path id="Path-9" data-name="Path" d="M12.264,15.11l.344-.294a.99.99,0,0,0,.147-1.325L2.005.337A.99.99,0,0,0,.68.189L.337.484A.99.99,0,0,0,.189,1.809L10.938,14.963A.99.99,0,0,0,12.264,15.11Z" transform="translate(0 0)" fill="#fff"/>
        </g>
        <ellipse id="Oval-2" data-name="Oval" cx="79.072" cy="11.682" rx="79.072" ry="11.682" transform="translate(6.479 408.072)" fill="#e3e5fc"/>
      </g>
      <g id="Group_8686" data-name="Group 8686" transform="translate(244.783 210.017)">
        <circle id="Oval-3" data-name="Oval" cx="36.886" cy="36.886" r="36.886" fill="#f44e4e"/>
        <g id="Group_8684" data-name="Group 8684" transform="translate(12.589 19.671)">
          <path id="Path_55882" data-name="Path 55882" d="M1242.89,749.93Z" transform="translate(-1228.101 -716.777)" fill="#fff"/>
          <path id="Path_55883" data-name="Path 55883" d="M1277.836,665.432a2.2,2.2,0,0,0-3.111,0l-27.845,27.845,3.111,3.111,27.845-27.845A2.2,2.2,0,0,0,1277.836,665.432Z" transform="translate(-1230.537 -664.79)" fill="#fff"/>
          <path id="Path_55884" data-name="Path 55884" d="M1219.7,718.743l1.557-1.557-12.593-12.593a2.2,2.2,0,0,0-3.111,3.111l14.15,14.15A2.2,2.2,0,0,1,1219.7,718.743Z" transform="translate(-1204.91 -688.701)" fill="#fff"/>
          <path id="Path_55885" data-name="Path 55885" d="M1241.882,739.5a2.2,2.2,0,0,0,0,3.111h0a2.2,2.2,0,0,0,3.111,0l1.558-1.558-3.111-3.111Z" transform="translate(-1227.093 -709.456)" fill="#fff"/>
        </g>
      </g>
      <g id="Group_4327" data-name="Group 4327" transform="translate(266.027 321.418)">
        <path id="Path_16650" data-name="Path 16650" d="M212.812,298.088a.324.324,0,0,1-.224-.094.3.3,0,0,1-.1-.227.325.325,0,0,1,.049-.165l.584-.934-1.138.036a.3.3,0,0,1-.233-.087.324.324,0,0,1,0-.431.3.3,0,0,1,.233-.091l1.122.042-.577-.93a.324.324,0,0,1-.049-.169.3.3,0,0,1,.1-.227.324.324,0,0,1,.224-.094.292.292,0,0,1,.263.169l.554,1,.548-1a.324.324,0,0,1,.282-.182.3.3,0,0,1,.217.1.33.33,0,0,1,.049.389l-.587.94,1.138-.042a.3.3,0,0,1,.233.091.3.3,0,0,1,.084.214.324.324,0,0,1-.084.217.3.3,0,0,1-.233.087l-1.144-.036.571.924a.325.325,0,0,1-.276.5.285.285,0,0,1-.259-.175l-.541-.973-.538.973A.3.3,0,0,1,212.812,298.088Z" transform="translate(-211.667 -294.71)" fill="#263238"/>
        <path id="Path_16651" data-name="Path 16651" d="M229.022,298.088a.324.324,0,0,1-.224-.094.3.3,0,0,1-.1-.227.324.324,0,0,1,.049-.165l.584-.934-1.135.036a.324.324,0,0,1-.237-.087.308.308,0,0,1,.237-.522l1.118.042-.577-.93a.324.324,0,0,1-.049-.169.3.3,0,0,1,.1-.227.324.324,0,0,1,.224-.094.292.292,0,0,1,.263.169l.554,1,.548-1a.324.324,0,0,1,.282-.182.289.289,0,0,1,.217.1.317.317,0,0,1,.049.389l-.587.94,1.141-.036a.289.289,0,0,1,.23.091.3.3,0,0,1,.084.214.325.325,0,0,1-.084.217.3.3,0,0,1-.23.088l-1.148-.036.571.924a.325.325,0,0,1-.276.5.285.285,0,0,1-.259-.175l-.541-.973-.538.973A.3.3,0,0,1,229.022,298.088Z" transform="translate(-222.618 -294.71)" fill="#263238"/>
        <path id="Path_16652" data-name="Path 16652" d="M245.252,298.088a.324.324,0,0,1-.227-.094.3.3,0,0,1-.1-.227.325.325,0,0,1,.049-.165l.584-.934-1.135.036a.308.308,0,0,1-.237-.519.3.3,0,0,1,.237-.091l1.119.042-.577-.93a.325.325,0,0,1,.279-.49.292.292,0,0,1,.259.169l.554,1,.548-1a.324.324,0,0,1,.282-.182.288.288,0,0,1,.217.1.317.317,0,0,1,.049.389l-.587.94,1.141-.042a.295.295,0,0,1,.324.3.324.324,0,0,1-.081.217.3.3,0,0,1-.233.088l-1.144-.036.567.924a.315.315,0,0,1-.052.4.3.3,0,0,1-.22.1.282.282,0,0,1-.256-.175l-.545-.973-.538.973a.3.3,0,0,1-.276.175Z" transform="translate(-233.586 -294.71)" fill="#263238"/>
        <path id="Path_16653" data-name="Path 16653" d="M261.476,298.088a.327.327,0,0,1-.324-.321.3.3,0,0,1,.045-.165l.584-.934-1.135.036a.305.305,0,1,1,0-.609l1.122.042-.574-.93a.325.325,0,0,1,.279-.49.292.292,0,0,1,.263.169l.551,1,.548-1a.324.324,0,0,1,.282-.182.289.289,0,0,1,.217.1.317.317,0,0,1,.049.389l-.587.94,1.141-.042a.3.3,0,0,1,.324.3.325.325,0,0,1-.081.217.3.3,0,0,1-.233.087l-1.144-.036.567.924a.325.325,0,0,1,.049.172.3.3,0,0,1-.1.227.3.3,0,0,1-.22.1.282.282,0,0,1-.256-.175l-.545-.973-.538.973a.3.3,0,0,1-.282.175Z" transform="translate(-244.551 -294.71)" fill="#263238"/>
        <path id="Path_16654" data-name="Path 16654" d="M277.7,298.088a.321.321,0,0,1-.276-.486l.58-.934-1.135.036a.305.305,0,1,1,0-.61l1.122.042-.577-.931a.323.323,0,0,1,.276-.49.292.292,0,0,1,.263.169l.551,1,.548-1a.324.324,0,0,1,.282-.182.3.3,0,0,1,.22.1.322.322,0,0,1,.045.389l-.587.94,1.141-.042a.3.3,0,0,1,.324.3.324.324,0,0,1-.081.217.3.3,0,0,1-.233.087l-1.144-.036.567.924a.325.325,0,0,1,.049.172.3.3,0,0,1-.1.227.3.3,0,0,1-.22.1.282.282,0,0,1-.256-.175l-.545-.973-.538.973A.3.3,0,0,1,277.7,298.088Z" transform="translate(-255.512 -294.71)" fill="#263238"/>
        <path id="Path_16655" data-name="Path 16655" d="M293.9,298.088a.325.325,0,0,1-.224-.094.3.3,0,0,1-.1-.227.325.325,0,0,1,.049-.165l.58-.934-1.135.036a.305.305,0,0,1-.237-.519.3.3,0,0,1,.233-.091l1.122.042-.577-.93a.323.323,0,0,1,.276-.49.292.292,0,0,1,.263.169l.551,1,.551-1a.324.324,0,0,1,.279-.182.3.3,0,0,1,.22.1.33.33,0,0,1,.049.389l-.587.94,1.138-.042a.3.3,0,0,1,.233.091.3.3,0,0,1,.084.214.324.324,0,0,1-.084.217.3.3,0,0,1-.233.088l-1.144-.036.567.924a.328.328,0,0,1-.272.5.282.282,0,0,1-.256-.175l-.545-.973-.538.973a.3.3,0,0,1-.263.175Z" transform="translate(-266.462 -294.71)" fill="#263238"/>
      </g>
    </g>
    <g id="Characters_Man_5" data-name="Characters / Man_5" transform="translate(118.906 235.755)">
      <g id="Man_5">
        <g id="Head_8_" transform="translate(26.904)">
          <path id="Neck_7_" d="M48.875,15.427,35.321,55.6,0,59S27.042,36.314,30.714,10.355,48.875,15.427,48.875,15.427Z" transform="translate(0 118.759)" fill="#d4a79a"/>
          <path id="Face_8_" d="M81.287,28.228S85.694,39.372,71,65.732c-14.622,26.36-32.383,47.38-40.4,43.31C8.375,97.764,4.769,78.878.563,62.329-4.579,42.042,27.2,4.872,27.2,4.872L48.77,0Z" transform="translate(19.335 30.482)" fill="#eac2ab"/>
          <path id="Hair_8_" d="M126.354,58.644c2.47-6.673,2.07-14.214-2.8-21.488a9.581,9.581,0,0,0-5.876-4.2c-1.8-.334-3.806.067-5.408-.734-5.008-2.336-3.472-10.21-7.879-13.146-3.272-2.2-7.678.133-11.618,0-3-.133-5.675-1.668-8.279-3.07C77.011,12.131,70.8,6.325,62.923,3.055,56.313.319,48.968-.882,41.824.719,34.413,2.388,28,7.459,23.462,14.133a25.6,25.6,0,0,0-4.607,13.614c.067-4-7.745-1.869-9.214-.667C3.832,31.617-.374,43.829.026,51.1.36,56.842,1.963,62.381,2.1,68.186c.334,12.679-1.068,33.834,17.761,34.167-.467-6.473-.935-13.08.4-19.486,2.4-11.411,7.545-26.493,18.094-33.033,22.3-13.68,29.779,21.955,46.672,28.7C100.514,84.736,120.745,73.792,126.354,58.644Z" transform="translate(3.312)" fill="#4b369d"/>
          <path id="Ear_6_" d="M9.992,4.636S4.05-7.576.845,7.639,4.584,28.126,4.584,28.126Z" transform="translate(19.186 57.611)" fill="#eac2ab"/>
        </g>
        <path id="Body_11_" d="M93.74,115.115a429.1,429.1,0,0,0-9.348-63.73C80.653,35.236,77.181,13.214,61.29,4,31.578-13.212,12.482,29.3,7.207,51.652,1.2,77.144,2,103.971,1.732,129.93c-.267,23.29-3.539,48.982-.334,71.938.534,4.071,2.07,8.208,5.208,10.744,8.079,6.54,16.358-2.135,23.169-6.006,6.343-3.6,13.087-3,19.764-5.472,5.942-2.135,8.814-6.54,13.754-10.01,13.02-9.009,26.975,5.472,41.063,2.8,30.58-5.939,7.211,2.4-5.074-58.992C98.013,128.729,94.274,122.589,93.74,115.115Z" transform="translate(0 162.146)" fill="#f44e4e"/>
        <path id="Arm_10_" d="M129.151,49.116c11.618-7.474,16.158-24.291,26.908-33.3,4.407-3.67,9.548-5.873,14.689-7.874C178.093,5.072,185.5,2.4,192.983,0c-.467,3.8-3.405,6.673-6.477,8.342s-6.477,2.669-9.281,4.738a9.179,9.179,0,0,0-3.071,3.67c-1.469,3.47-.067,7.608-.668,11.345-1.135,7.074-8.413,9.943-13.955,13.347C148.114,48.582,140.7,62.6,128.751,68.6c0,0-89.538,74.274-100.555,72.205S1.956,37.437,1.956,37.437-8.527-14.815,19.048,10.21s10.616,108.108,24.237,99.566C56.973,101.234,129.151,49.116,129.151,49.116Z" transform="translate(44.111 182.233)" fill="#eac2ab"/>
        <path id="Body_10_" d="M44.821,59.366S41.683-4.965,14.975.307C-11.733,5.646,5.427,77.851,5.427,77.851l43.6-9.343Z" transform="translate(38.236 174.519)" fill="#d7384e"/>
      </g>
    </g>
  </g>
</svg>
