<svg xmlns="http://www.w3.org/2000/svg" width="26.215" height="26.215" viewBox="0 0 26.215 26.215">
  <path id="Search" d="M23.7,26.215A.951.951,0,0,1,23,26l-7-8a9.96,9.96,0,0,1-5.956,2H10A9.9,9.9,0,0,1,0,10,9.7,9.7,0,0,1,3,3,9.7,9.7,0,0,1,9.954,0H10A9.9,9.9,0,0,1,20,10a10.168,10.168,0,0,1-2,6l8,7c.415.394.124,1.519,0,2a1.282,1.282,0,0,1-1,1A5.46,5.46,0,0,1,23.7,26.215ZM9.941,2C8.142,2,5.651,2.347,4,4,2.329,5.674,1.99,8.187,2,10a7.88,7.88,0,0,0,8,8h.059c1.8,0,4.29-.347,5.941-2,1.671-1.674,2.01-4.187,2-6a7.88,7.88,0,0,0-8-8H9.941Z" transform="translate(0 0)" fill="rgba(0,0,0,0.36)"/>
</svg>
