<svg xmlns="http://www.w3.org/2000/svg" width="391.816" height="465.009" viewBox="0 0 391.816 465.009">
  <g id="Group_8708" data-name="Group 8708" transform="translate(-104 -163.971)">
    <g id="_20_User_Interaction" data-name="20 User Interaction" transform="translate(-336.759 -9.319)">
      <g id="Characters" transform="translate(542.077 280.813)">
        <path id="Hand_2_" d="M739.411,620.142c.309-.953.633-1.9.974-2.838,11.8-32.674,41.421-55.726,72.4-71.447,10.689-5.424,22.011-10.431,30.093-19.276,18.41-20.141,12.8-53.366-11.147-66.373,11.121,6.037,43.3-6.439,25.983-19.152-4.1-3.008-9.257-4.09-13.831-6.3s-8.958-6.382-8.644-11.456a12.571,12.571,0,0,1,2.416-6.12c5.46-8.036,15.072-12.595,20.224-20.831a10.127,10.127,0,0,0,1.88-6.048c-.289-3.4-3.348-6.037-6.635-6.944-32.69-9-57.879,30.727-90.239,27.111-1.849-.206-3.827-.531-5.476.33-1.916,1-2.74,3.276-3.292,5.368a67.992,67.992,0,0,0,3.173,43.811c4.873,11.394,13.084,22.372,11.848,34.7-1.107,11.039-9.761,20.548-9.53,31.639.062,2.952.757,5.965,0,8.819-1.144,4.3-5.254,7.078-9.236,9.066-19.368,9.669-41.926,9.818-63.01,14.722a8.325,8.325,0,0,0-4.131,1.834c-1.885,1.87-1.638,4.914-1.375,7.557,2.06,20.589-2.859,41.168-7.742,61.274l-16.18,66.621c-.572,2.349-1.056,5.1.5,6.949a7.523,7.523,0,0,0,3.415,1.952,124.24,124.24,0,0,0,22.367,5.553c6.027.917,12.311,1.365,18.122-.484,9.03-2.874,15.526-10.885,19.75-19.369C732.931,669.032,731.891,643.255,739.411,620.142Z" transform="translate(-657.387 -382.024)" fill="#eac2ab"/>
        <path id="Hand_1_" d="M717.893,508.275c3.791-10.014,8.69-19.6,11.992-29.789a161.5,161.5,0,0,0,5.553-25.2c2.4-15.521,2.411-31.18,3.049-46.876,8.031,3.724,17.231,12.517,18.6,21.264s-1.525,17.653-2.478,26.457c-2.344,21.723-3.008,45.439,10.127,62.9,4.966,6.6,11.431,11.925,16.623,18.343s9.169,14.588,7.768,22.727c-1.736,10.1-10.967,16.983-19.739,22.284a281.242,281.242,0,0,1-35.858,18.307c-7.289,3.086-8.432,6.362-18.282,6.465-5.4.057-12.76-18.179-10.761-40.355C706.694,540.2,709.022,531.713,717.893,508.275Z" transform="translate(-680.061 -393.849)" fill="#eac2ab"/>
      </g>
      <g id="UI" transform="translate(440.759 173.29)">
        <g id="Phone" transform="translate(159.775 29.259)">
          <path id="Path_55902" data-name="Path 55902" d="M876.856,230.09H789.028a18.21,18.21,0,0,0-18.158,18.158v88.091c38.686-34.729,78.123-68.619,119.24-100.412A18.069,18.069,0,0,0,876.856,230.09Z" transform="translate(-770.87 -230.09)" fill="#eff0fc"/>
          <path id="Path_55903" data-name="Path 55903" d="M890.12,241.42C849,273.213,809.571,307.1,770.88,341.832V468.7a18.213,18.213,0,0,0,18.158,18.158h87.823A18.21,18.21,0,0,0,895.019,468.7V253.736A18.048,18.048,0,0,0,890.3,241.59C890.238,241.533,890.177,241.482,890.12,241.42Z" transform="translate(-770.875 -235.584)" fill="#e3e5fc"/>
          <path id="Path_55904" data-name="Path 55904" d="M876.856,230.09H789.028a18.21,18.21,0,0,0-18.158,18.158v214.96a18.21,18.21,0,0,0,18.158,18.158h87.823a18.21,18.21,0,0,0,18.158-18.158V248.248A18.209,18.209,0,0,0,876.856,230.09Zm10.277,209.675a18.21,18.21,0,0,1-18.158,18.158H796.9a18.21,18.21,0,0,1-18.158-18.158V256.691A18.21,18.21,0,0,1,796.9,238.533h72.071a18.213,18.213,0,0,1,18.158,18.158V439.765Z" transform="translate(-770.87 -230.09)" fill="#5a54ff"/>
          <path id="Path_55905" data-name="Path 55905" d="M891.576,239.3H867.2a.541.541,0,0,1-.541-.541v-.989a.541.541,0,0,1,.541-.541h24.375a.541.541,0,0,1,.541.541v.989A.541.541,0,0,1,891.576,239.3Z" transform="translate(-817.317 -233.552)" fill="#e3e5fc"/>
          <circle id="Ellipse_728" data-name="Ellipse 728" cx="6.439" cy="6.439" r="6.439" transform="translate(55.633 232.335)" fill="#4b369d"/>
        </g>
        <g id="Wifi" transform="translate(272.658)">
          <g id="Group_8704" data-name="Group 8704">
            <path id="Path_55906" data-name="Path 55906" d="M1025.342,210.554a1.932,1.932,0,0,1-1.932-1.932,31.5,31.5,0,0,0-31.469-31.469,1.932,1.932,0,1,1,0-3.863,35.367,35.367,0,0,1,35.327,35.327A1.926,1.926,0,0,1,1025.342,210.554Z" transform="translate(-990.01 -173.29)" fill="#a7adff"/>
          </g>
          <g id="Group_8705" data-name="Group 8705" transform="translate(1.329 12.152)">
            <path id="Path_55907" data-name="Path 55907" d="M1015.77,221.992a1.932,1.932,0,0,1-1.932-1.932,19.337,19.337,0,0,0-19.317-19.317,1.932,1.932,0,0,1,0-3.863,23.2,23.2,0,0,1,23.175,23.18A1.925,1.925,0,0,1,1015.77,221.992Z" transform="translate(-992.59 -196.88)" fill="#a7adff"/>
          </g>
        </g>
        <g id="Element" transform="translate(323.892 52.259)">
          <path id="Path_55908" data-name="Path 55908" d="M1141.786,283.4H1092.38a2.917,2.917,0,0,1-2.91-2.91V277.65a2.917,2.917,0,0,1,2.91-2.91h49.405a2.917,2.917,0,0,1,2.91,2.91v2.838A2.917,2.917,0,0,1,1141.786,283.4Z" transform="translate(-1089.47 -274.74)" fill="#e3e5fc"/>
          <path id="Path_55909" data-name="Path 55909" d="M1141.786,311.929H1092.38a2.917,2.917,0,0,1-2.91-2.91V306.18a2.917,2.917,0,0,1,2.91-2.91h49.405a2.917,2.917,0,0,1,2.91,2.91v2.838A2.921,2.921,0,0,1,1141.786,311.929Z" transform="translate(-1089.47 -288.574)" fill="#e3e5fc"/>
          <path id="Path_55910" data-name="Path 55910" d="M1141.786,340.449H1092.38a2.917,2.917,0,0,1-2.91-2.91V334.7a2.917,2.917,0,0,1,2.91-2.91h49.405a2.917,2.917,0,0,1,2.91,2.91v2.838A2.917,2.917,0,0,1,1141.786,340.449Z" transform="translate(-1089.47 -302.402)" fill="#e3e5fc"/>
          <path id="Path_55911" data-name="Path 55911" d="M1141.786,368.979H1092.38a2.917,2.917,0,0,1-2.91-2.91V363.23a2.917,2.917,0,0,1,2.91-2.91h49.405a2.917,2.917,0,0,1,2.91,2.91v2.838A2.917,2.917,0,0,1,1141.786,368.979Z" transform="translate(-1089.47 -316.236)" fill="#e3e5fc"/>
        </g>
        <g id="Element_1_" transform="translate(0 109.54)">
          <g id="Group_8706" data-name="Group 8706">
            <path id="Path_55912" data-name="Path 55912" d="M577.256,397.716H463.61a2.917,2.917,0,0,1-2.91-2.91V388.85a2.917,2.917,0,0,1,2.91-2.91H577.256a2.917,2.917,0,0,1,2.91,2.91v5.955A2.917,2.917,0,0,1,577.256,397.716Z" transform="translate(-460.7 -385.94)" fill="#e3e5fc"/>
            <path id="Path_55913" data-name="Path 55913" d="M619.024,436.506H549.75a2.917,2.917,0,0,1-2.911-2.91V427.64a2.917,2.917,0,0,1,2.911-2.91h69.273a2.917,2.917,0,0,1,2.911,2.91V433.6A2.917,2.917,0,0,1,619.024,436.506Z" transform="translate(-502.467 -404.748)" fill="#e3e5fc"/>
          </g>
          <g id="Group_8707" data-name="Group 8707" transform="translate(48.231 64.792)">
            <path id="Path_55914" data-name="Path 55914" d="M622.656,523.49H557.24a2.917,2.917,0,0,1-2.91-2.91v-5.95a2.917,2.917,0,0,1,2.91-2.91h65.415a2.917,2.917,0,0,1,2.911,2.91v5.95A2.917,2.917,0,0,1,622.656,523.49Z" transform="translate(-554.33 -511.72)" fill="#e3e5fc"/>
            <path id="Path_55915" data-name="Path 55915" d="M647.559,562.276H608.6a2.917,2.917,0,0,1-2.91-2.91V553.41a2.917,2.917,0,0,1,2.91-2.91h38.958a2.917,2.917,0,0,1,2.911,2.91v5.955A2.917,2.917,0,0,1,647.559,562.276Z" transform="translate(-579.233 -530.524)" fill="#e3e5fc"/>
          </g>
        </g>
      </g>
      <g id="Characters_copy" transform="translate(632.069 312.378)">
        <path id="Hand_3_" d="M965.294,645.171a127.1,127.1,0,0,1-1.066-14.1c-.556-31.515,4.08-72.725-26.055-92.016-13.558-8.68-31.479-9.236-42.482-22.31-4.049-4.811-6.228-10.967-8.293-16.984q-9.659-28.11-18.642-56.462c-6.151.675-9.669,7.624-11.024,13.877-3.93,18.127.979,37.032,7.4,54.371s14.475,34.312,17.154,52.681c1.015,6.97-1.108,16.757-7.9,16.5-3.59-.139-6.315-3.364-8.149-6.568-7.454-13.017-9.674-31.6-23.309-37.022-3.611-1.437-8.772-.917-9.952,2.905-.639,2.06-1.329,4.27-.52,6.264,11.343,28.1,19.827,53.5,37.29,78,6.661,9.349,20.785,19.106,27.2,28.661,22.964,34.219,22.418,39.494,41.189,76,1.242,2.416,3.76-20.708,6.079-19.394,2.23,1.267.706,11.461,3.23,11.147,12.749-1.581,27.585,7.639,39.021,1.587,1.9-1,3.9-2.112,4.955-4.044s.917-4.3.757-6.511C989.438,674.393,970.105,682.027,965.294,645.171Z" transform="translate(-832.088 -443.3)" fill="#eac2ab"/>
      </g>
      <path id="Path_16478" data-name="Path 16478" d="M324.51,375.433s8.429-11.259,25.639-16.892a131.291,131.291,0,0,1,30.768-6.33l10.622,22.9s-31.865,9.463-42.124,17.213S336.6,403.941,336.6,403.941Z" transform="translate(392.846 180.803)" fill="#fff" stroke="#263238" stroke-miterlimit="10" stroke-width="1"/>
      <path id="Path_16479" data-name="Path 16479" d="M353.943,453.443s-13.921-33.428-17.582-40.463,2.2-10.553,2.2-10.553,8.419-10.911,30.4-19.357,23.837-8.794,29.291-2.812,41.533,73.286,41.533,73.286" transform="translate(392.35 178.791)" fill="#d7384e" stroke="#263238" stroke-miterlimit="10" stroke-width="1"/>
    </g>
    <path id="Path_16483" data-name="Path 16483" d="M131.783,409.806s-10.1-12.352-29.509-17.642A140.61,140.61,0,0,0,67.916,387l-10.1,26.98s35.833,8.737,47.689,16.926,14.965,12.468,14.965,12.468Z" transform="translate(142.601 159.985)" fill="#fff" stroke="#263238" stroke-miterlimit="10" stroke-width="1"/>
    <path id="Path_16484" data-name="Path 16484" d="M117.275,466.829s2.519-8.431,6.06-16.767-3.162-11.972-3.162-11.972S110.1,426.138,85.257,417.939s-26.885-8.484-32.524-1.243S29,467.482,29,467.482" transform="translate(141.047 161.306)" fill="#d7384e" stroke="#263238" stroke-miterlimit="10" stroke-width="1"/>
  </g>
</svg>
