<svg id="_7_Social_Media" data-name="7 Social Media" xmlns="http://www.w3.org/2000/svg" width="319.859" height="211.199" viewBox="0 0 319.859 211.199">
  <g id="Nature" transform="translate(0 74.601)">
    <g id="Plant">
      <path id="Path_55800" data-name="Path 55800" d="M360.647,593.925a7.175,7.175,0,0,0,.629-2.477c.528-7.99-7.844-6.693-12.8-9.021-4.629-2.175-4.824-7.22-5.154-11.67-.439-5.957-.837-10.176-4.941-14.937-8.762-10.168-6.7-21.274-11.337-33.082-3-7.628-10.064-13.541-17.817-16.328a12.316,12.316,0,0,0-7.79-.619,10.886,10.886,0,0,0-7.444,10.981c.429,4,2.9,7.254,3.654,11.153a10.719,10.719,0,0,1-6.02,11.5c-2.477,1.118-5.819,1.619-6.883,3.724a3.1,3.1,0,0,0,.083,2.68c1.471,3.587,4.884,6.113,6.181,9.76,1.528,4.3-.4,7.574-2.025,11.5-.728,1.765-1.1,3.878-.122,5.518,1.809,3.023,6.222,2.217,8.291,4.918,2.461,3.215-1.778,8.312-5.307,12.231s-6.467,9.869-2.35,11.644c1.281.554,2.96.489,4.465.7,6.763.951,9.063,7.054,10.576,12.512,1.632,5.884,7.966,7.8,12.247,11.28,4.827,3.922,6.368,11.615,14.43,8.247,5.521-2.305,8.031-8.185,11.158-12.848,3.426-5.11,7.072-10.16,9.248-15.964C353.315,601.023,358.768,598.138,360.647,593.925Z" transform="translate(-284.473 -505.398)" fill="#e3e5fc"/>
      <g id="Group_8650" data-name="Group 8650" transform="translate(27.573 42.649)">
        <g id="Group_8647" data-name="Group 8647">
          <path id="Path_55801" data-name="Path 55801" d="M409.291,756.29a.364.364,0,0,1-.356-.288l-18.368-86.073a.366.366,0,1,1,.715-.153l18.368,86.073a.366.366,0,0,1-.281.434A.4.4,0,0,1,409.291,756.29Z" transform="translate(-390.559 -669.486)" fill="#fff"/>
        </g>
        <g id="Group_8648" data-name="Group 8648" transform="translate(6.666 11.234)">
          <path id="Path_55802" data-name="Path 55802" d="M416.572,731.733a.541.541,0,0,1-.065-.005.365.365,0,0,1-.294-.424l3.285-18.3a.365.365,0,1,1,.717.13l-3.285,18.3A.365.365,0,0,1,416.572,731.733Z" transform="translate(-416.207 -712.709)" fill="#fff"/>
        </g>
        <g id="Group_8649" data-name="Group 8649" transform="translate(3.21 47.427)">
          <path id="Path_55803" data-name="Path 55803" d="M413.246,867.026a.364.364,0,0,1-.3-.156l-9.973-14.337a.366.366,0,0,1,.6-.418l9.973,14.337a.367.367,0,0,1-.091.509A.384.384,0,0,1,413.246,867.026Z" transform="translate(-402.908 -851.958)" fill="#fff"/>
        </g>
      </g>
    </g>
    <ellipse id="Ground" cx="133.691" cy="3.912" rx="133.691" ry="3.912" transform="translate(51.472 128.774)" fill="#e3e5fc"/>
    <g id="Plant_1_" transform="translate(211.027 25.991)">
      <path id="Path_55804" data-name="Path 55804" d="M1101.317,696.416a9.757,9.757,0,0,1-1.344-5c.213-3.168,2.836-5.547,5.1-7.777s4.483-5.245,3.628-8.3c-.821-2.94-4.026-4.374-6.739-5.77s-5.617-3.875-5.019-6.867c.858-4.286,7.927-4.954,8.694-9.258a7.772,7.772,0,0,0-1.094-4.538l-6.932-14.651c-1.058-2.235-2.007-5.2-.237-6.922,1.193-1.162,3.067-1.136,4.629-1.708,4.055-1.487,5.271-6.493,6.2-10.711s3.1-9.188,7.405-9.5a8.3,8.3,0,0,1,4.712,1.385A18.207,18.207,0,0,1,1129,623.464c-.213,2.818-1.019,5.962.644,8.247a13.005,13.005,0,0,0,3.449,2.7,15.256,15.256,0,0,1,6.311,14.667c-.606,3.784-2.623,7.813-.845,11.207,1.991,3.8,7.691,4.445,9.581,8.291,1.557,3.166-.213,6.929-2.256,9.807s-4.515,5.864-4.426,9.391c.044,1.825.793,3.561.99,5.375.507,4.627-2.6,8.913-6.2,11.857-4.655,3.805-11.717,7.842-17.861,5.8A30.725,30.725,0,0,1,1101.317,696.416Z" transform="translate(-1096.386 -605.396)" fill="#a7adff"/>
      <g id="Group_8651" data-name="Group 8651" transform="translate(21.817 36.001)">
        <path id="Path_55805" data-name="Path 55805" d="M1186.31,814.236a.367.367,0,0,1-.364-.335l-5.619-69.6a.366.366,0,0,1,.335-.392.356.356,0,0,1,.392.335l5.619,69.6a.366.366,0,0,1-.335.392Z" transform="translate(-1180.326 -743.909)" fill="#fff"/>
      </g>
      <g id="Group_8652" data-name="Group 8652" transform="translate(23.456 43.966)">
        <path id="Path_55806" data-name="Path 55806" d="M1187,787.6a.365.365,0,0,1-.286-.593l9.871-12.32a.365.365,0,0,1,.572.455l-9.872,12.32A.365.365,0,0,1,1187,787.6Z" transform="translate(-1186.633 -774.553)" fill="#fff"/>
      </g>
      <g id="Group_8653" data-name="Group 8653" transform="translate(25.814 67.982)">
        <path id="Path_55807" data-name="Path 55807" d="M1196.069,880a.365.365,0,0,1-.286-.593l9.871-12.32a.365.365,0,0,1,.572.455l-9.871,12.32A.366.366,0,0,1,1196.069,880Z" transform="translate(-1195.703 -866.953)" fill="#fff"/>
      </g>
      <g id="Group_8654" data-name="Group 8654" transform="translate(15.404 62.858)">
        <path id="Path_55808" data-name="Path 55808" d="M1165.24,855.91a.363.363,0,0,1-.239-.089l-9.222-7.94a.365.365,0,0,1,.476-.554l9.222,7.94a.366.366,0,0,1,.039.515A.36.36,0,0,1,1165.24,855.91Z" transform="translate(-1155.652 -847.238)" fill="#fff"/>
      </g>
    </g>
    <g id="Plant_2_" transform="translate(239.083 58.452)">
      <path id="Path_55809" data-name="Path 55809" d="M1205.254,785.273a6.517,6.517,0,0,1-.912-3.241c.125-1.583,1.365-2.833,2.607-3.823,2.825-2.253,6.077-3.99,8.6-6.578s4.244-6.425,3.02-9.825c-.964-2.677-3.6-4.717-3.774-7.558-.234-3.761,3.8-6.2,5.695-9.453,1.578-2.711,1.635-6.02,2.591-9.006s3.582-5.994,6.667-5.432c3.394.616,4.6,4.86,4.64,8.312s-.146,7.459,2.485,9.692c.91.772,2.095,1.248,2.8,2.212a6.248,6.248,0,0,1,.881,3.1c.613,6.02,1.1,12.6-2.292,17.614a10.515,10.515,0,0,0-2.03,3.587c-.665,3.361,3.3,6.3,2.755,9.682-.463,2.869-3.784,4.208-5.528,6.534-1.981,2.641-1.812,6.448-3.821,9.066-2.994,3.9-11.5,4.7-15.421,1.741C1209.768,798.542,1207.564,790.053,1205.254,785.273Z" transform="translate(-1204.331 -730.288)" fill="#f44e4e"/>
      <g id="Group_8655" data-name="Group 8655" transform="translate(14.519 19.844)">
        <path id="Path_55810" data-name="Path 55810" d="M1260.559,860.682a.5.5,0,0,1-.06-.005.369.369,0,0,1-.3-.421l8.808-53.311a.355.355,0,0,1,.421-.3.369.369,0,0,1,.3.421l-8.808,53.311A.369.369,0,0,1,1260.559,860.682Z" transform="translate(-1260.193 -806.638)" fill="#fff"/>
      </g>
      <g id="Group_8656" data-name="Group 8656" transform="translate(20.654 27.971)">
        <path id="Path_55811" data-name="Path 55811" d="M1284.161,848.858a.364.364,0,0,1-.278-.6l8.71-10.222a.365.365,0,1,1,.556.473l-8.71,10.222A.373.373,0,0,1,1284.161,848.858Z" transform="translate(-1283.797 -837.907)" fill="#fff"/>
      </g>
      <g id="Group_8657" data-name="Group 8657" transform="translate(11.898 48.158)">
        <path id="Path_55812" data-name="Path 55812" d="M1255.582,926.247a.367.367,0,0,1-.325-.2l-5.11-9.944a.366.366,0,0,1,.652-.333l5.11,9.944a.366.366,0,0,1-.159.491A.392.392,0,0,1,1255.582,926.247Z" transform="translate(-1250.107 -915.573)" fill="#fff"/>
      </g>
    </g>
    <g id="Plant_3_" transform="translate(281.71 96.046)">
      <path id="Path_55813" data-name="Path 55813" d="M1369.472,899.845c1.32-1.687,3.951-2.76,3.81-4.9-.119-1.814-2.365-3.194-1.926-4.959.416-1.661,2.685-1.827,4.387-1.627a9.433,9.433,0,0,0-.034-3.561,4.315,4.315,0,0,1,.764-3.395c.813-.879,2.581-.832,2.96.3q.9-2.554,1.812-5.1c.247-.7.608-1.5,1.333-1.65,1.058-.221,1.773,1.172,1.606,2.24s-.793,2.058-.754,3.14a2.7,2.7,0,0,0,2.729,2.5c-1.411,1.1-2.971,2.937-1.986,4.429.5.751,1.6,1.375,1.276,2.212s-1.825.759-2.009,1.637c-.25,1.17,2.238,1.713,1.77,2.815a2.139,2.139,0,0,0-2.017,3.1c.925,1.435,3.194,1.222,4.429,2.4a3.389,3.389,0,0,1,.66,3.426c-1.429,4.6-6.81,10.129-11.857,8.323C1372.416,909.732,1365.633,904.745,1369.472,899.845Z" transform="translate(-1368.334 -874.93)" fill="#fdc510"/>
      <g id="Group_8658" data-name="Group 8658" transform="translate(9.129 10.911)">
        <path id="Path_55814" data-name="Path 55814" d="M1403.824,942.921h-.028a.368.368,0,0,1-.338-.392l1.895-25.282a.354.354,0,0,1,.392-.338.369.369,0,0,1,.338.392l-1.895,25.282A.366.366,0,0,1,1403.824,942.921Z" transform="translate(-1403.457 -916.908)" fill="#fff"/>
      </g>
      <g id="Group_8659" data-name="Group 8659" transform="translate(5.276 21.787)">
        <path id="Path_55815" data-name="Path 55815" d="M1393.649,963.276a.357.357,0,0,1-.231-.083l-4.65-3.79a.366.366,0,1,1,.463-.567l4.65,3.79a.366.366,0,0,1-.231.65Z" transform="translate(-1388.634 -958.754)" fill="#fff"/>
      </g>
      <g id="Group_8660" data-name="Group 8660" transform="translate(9.763 26.644)">
        <path id="Path_55816" data-name="Path 55816" d="M1406.262,984.1a.362.362,0,0,1-.283-.135.367.367,0,0,1,.055-.515l7.345-5.931a.366.366,0,0,1,.46.569l-7.345,5.931A.373.373,0,0,1,1406.262,984.1Z" transform="translate(-1405.898 -977.442)" fill="#fff"/>
      </g>
    </g>
    <g id="Plant_4_" transform="translate(40.085 36.211)">
      <path id="Path_55817" data-name="Path 55817" d="M443.131,686.728c-.486-1.692-2.007-3.109-3.137-4.632s-1.864-3.426-.723-4.941a12.719,12.719,0,0,1,2.142-1.835c3.358-2.753,3.545-6.888,2.482-10.49s-3.176-7.031-3.816-10.688c-.59-3.387.632-7.413,4.842-8.9a10.994,10.994,0,0,1,9.476,1.385,7.53,7.53,0,0,1,3.194,6.906c-.1,1-.359,2.095.385,2.94,1.466,1.671,5.287.915,7.371,2.188,1.783,1.089,1.523,3.137.772,4.743s-1.848,3.285-1.224,4.92c.772,2.017,3.974,3.278,4.3,5.359.133.853-.257,1.728,0,2.565.72,2.357,6.1,3.584,4.972,5.858-.871,1.765-4.855,1.549-6.085,3.2-1.307,1.749,1.58,3.771,1.219,5.747a4.387,4.387,0,0,1-1.1,1.853q-4.94,5.914-9.882,11.826a10.756,10.756,0,0,1-2.022,2.014c-5.058,3.574-12.759,1.274-13.619-3.316a66.494,66.494,0,0,1-1.11-6.979C441.332,693.166,444.064,689.98,443.131,686.728Z" transform="translate(-438.699 -644.718)" fill="#a7adff"/>
      <g id="Group_8661" data-name="Group 8661" transform="translate(14.366 25.136)">
        <rect id="Rectangle_1668" data-name="Rectangle 1668" width="0.73" height="69.826" transform="matrix(0.998, -0.06, 0.06, 0.998, 0, 0.044)" fill="#4b369d"/>
      </g>
      <g id="Group_8662" data-name="Group 8662" transform="translate(15.681 33.125)">
        <rect id="Rectangle_1669" data-name="Rectangle 1669" width="15.787" height="0.73" transform="translate(0 12.117) rotate(-50.128)" fill="#4b369d"/>
      </g>
      <g id="Group_8663" data-name="Group 8663" transform="translate(7.529 51.606)">
        <rect id="Rectangle_1670" data-name="Rectangle 1670" width="0.73" height="12.172" transform="matrix(0.668, -0.744, 0.744, 0.668, 0, 0.544)" fill="#4b369d"/>
      </g>
    </g>
    <path id="Plant_5_" d="M338.114,981.83a7.723,7.723,0,0,1-1.916-3.756,1.334,1.334,0,0,1,.151-.993,1.238,1.238,0,0,1,.769-.413c2.064-.442,4,1.071,5.492,2.565a52.533,52.533,0,0,1,7,8.7,13.693,13.693,0,0,1-1.554-7.683.348.348,0,0,1,.1-.237.312.312,0,0,1,.255-.036c.634.122,1.034.738,1.339,1.31a29.092,29.092,0,0,1,2.308,5.794c-.343-1.245.673-2.745,1.593-3.488,1.648-1.326,1.3.525.938,1.611-.351,1.066-2.68,5.24-4.341,4.307-.3-.172-.379-1.1-.629-1.4a3.2,3.2,0,0,0-1.663-.884,29.349,29.349,0,0,1-5-1.552A16.009,16.009,0,0,1,338.114,981.83Z" transform="translate(-322.733 -854.121)" fill="#a7adff"/>
    <path id="Plant_6_" d="M1080.964,986.505a26.737,26.737,0,0,1,.91-6.233,2.843,2.843,0,0,1,1.245-1.783.49.49,0,0,1,.406-.047.551.551,0,0,1,.239.273c3.649,6.992-6.145,10.924-10.612,5.666a2.113,2.113,0,0,1-.574-1.123,1.577,1.577,0,0,1,1.45-1.544,3.283,3.283,0,0,1,2.181.707,15.054,15.054,0,0,1,3.912,4.751,13.257,13.257,0,0,1-2.194-7.727c.013-.408.151-.93.559-.964a.807.807,0,0,1,.53.216,5.7,5.7,0,0,1,1.973,3.61A15.99,15.99,0,0,1,1080.964,986.505Z" transform="translate(-867.735 -855.472)" fill="#f44e4e"/>
    <path id="Plant_7_" d="M485.449,963.09a.658.658,0,0,1,.3.083,1.275,1.275,0,0,1,.509.915c.689,3.231.671,2.438.327,6.677a11.951,11.951,0,0,1,1.788-4.572,3.169,3.169,0,0,1,1.008-1.219c2.95-1.806.094,6.2-.405,7.114-1.851,3.4-5.45,4.247-8.944,2.994a11.624,11.624,0,0,1-7.088-6.607c-.1-.281-.172-.634.039-.847a.812.812,0,0,1,.577-.169,8,8,0,0,1,5,2.129c1.414,1.193,2.586,2.643,3.917,3.927.943.91,3.025.858,4.325,1.014,2.212.268,3.085-.59,5.006-1.721a2.7,2.7,0,0,1,1.362-.465,1.1,1.1,0,0,1,1.092.788,1.384,1.384,0,0,1-.169.837c-1.572,3.322-5.858,2.875-7.748.224-1.8-2.529-2.963-6.74-2.1-9.773C484.419,963.8,484.9,963.079,485.449,963.09Z" transform="translate(-423.887 -844.13)" fill="#fdc510"/>
    <path id="Plant_8_" d="M1466.365,983.09a.457.457,0,0,1,.208.057.888.888,0,0,1,.353.639c.481,2.256.468,1.7.229,4.66a8.34,8.34,0,0,1,1.248-3.192,2.216,2.216,0,0,1,.7-.853c2.058-1.261.065,4.322-.283,4.964-1.292,2.376-3.805,2.966-6.24,2.09a8.107,8.107,0,0,1-4.946-4.611.573.573,0,0,1,.029-.593.558.558,0,0,1,.4-.117,5.565,5.565,0,0,1,3.488,1.487c.985.832,1.8,1.845,2.734,2.742.657.634,2.11.6,3.017.707,1.544.187,2.152-.413,3.493-1.2a1.873,1.873,0,0,1,.951-.325.767.767,0,0,1,.761.548.96.96,0,0,1-.117.582c-1.1,2.319-4.089,2.007-5.406.156a8.934,8.934,0,0,1-1.466-6.82C1465.648,983.589,1465.986,983.082,1466.365,983.09Z" transform="translate(-1152.667 -858.932)" fill="#a7adff"/>
  </g>
  <g id="Characters" transform="translate(88.066 0)">
    <g id="Man" transform="translate(0)">
      <g id="Bag" transform="translate(17.209 41.406)">
        <path id="Path_55818" data-name="Path 55818" d="M719.84,411.027,749.7,377.68l-4.221,9.853L721.6,411.027Z" transform="translate(-711.957 -377.68)" fill="#4b369d"/>
        <path id="Path_55819" data-name="Path 55819" d="M713.873,534.517l-20.005-7.7a6.821,6.821,0,0,1-3.9-8.79l5.807-15.091a6.821,6.821,0,0,1,8.79-3.9l20.005,7.7a6.821,6.821,0,0,1,3.9,8.79l-5.807,15.091A6.82,6.82,0,0,1,713.873,534.517Z" transform="translate(-689.512 -467.158)" fill="#4b369d"/>
      </g>
      <path id="Phone" d="M1012.77,363.758l11.795-19.837s4.6-2.623,3.615.907-11.395,20.637-11.395,20.637Z" transform="translate(-911.542 -310.597)" fill="#4b369d"/>
      <g id="Head" transform="translate(54.476)">
        <path id="Neck" d="M846.427,349.8l-3.514,11.285-9.833,1.183s7.384-6.513,8.25-13.762S846.427,349.8,846.427,349.8Z" transform="translate(-833.032 -312.525)" fill="#d4a79a"/>
        <path id="Face" d="M874.08,257.687s1.3,3.08-2.617,10.521-8.717,13.427-10.984,12.343c-6.269-2.994-7.4-8.247-8.679-12.835-1.562-5.625,7.049-16.193,7.049-16.193l5.986-1.5Z" transform="translate(-846.747 -241.795)" fill="#eac2ab"/>
        <path id="Hair" d="M839.619,237.734a83.287,83.287,0,0,0-.642,10.116.765.765,0,0,1-.151.538c-.328.387-2.794-3.745-2.979-4.065-1.211-2.084-3.062-4.632-2.329-7.155a11.359,11.359,0,0,0,.639-2.095c.12-1.372-.938-2.243-1.183-3.475a7.31,7.31,0,0,1,.431-3.53,10.341,10.341,0,0,1,3.917-5.463c1.479-.915,2.732-.468,4.211-.982.78-.27,1.131-1.149,1.656-1.786a4.53,4.53,0,0,1,3.392-1.458,9.731,9.731,0,0,1,5.157,1.172c1.7,1.151,1.866,4.195,3.47,5.045a2.371,2.371,0,0,0,.9.208c2.992.291,5.83.156,8.226,2.2,3.784,3.233,1.19,14.669-4.393,11.434-.639-.372-1.183-.886-1.793-1.3-2.937-2.02-6.667,1.365-8.645-3.743-.353-.912-6.459-1.237-6.539,1.255A3.109,3.109,0,0,1,839.619,237.734Z" transform="translate(-832.896 -218.374)" fill="#4b369d"/>
        <path id="Ear" d="M856.234,288.977s-1.736-3.366-2.534.9,1.18,5.684,1.18,5.684Z" transform="translate(-848.153 -269.693)" fill="#eac2ab"/>
      </g>
      <g id="Leg_2_" transform="translate(0 87.43)">
        <path id="Skin_1_" d="M655.37,892.459l-8.91,12.426L642,902.334l10.066-12.414S654.7,890.965,655.37,892.459Z" transform="translate(-637.14 -802.807)" fill="#d4a79a"/>
        <path id="Shoe_1_" d="M643.733,946.673c-.224.265-1.936-.138-2.2-.177-2.682-.4-6.825-.873-8.876-2.8-2-1.874-3.015-4.7-4.7-6.841a24.106,24.106,0,0,0-4.335-3.745c-1.653-1.3,3.4-8.988,5.388-7.288,1.609,1.378.239,4.244,4.858,4.6,3.956.3.569,5.469,4.564,9.528C641.969,943.541,646.169,943.78,643.733,946.673Z" transform="translate(-623.302 -829.199)" fill="#f3aa02"/>
        <path id="Leg_3_" d="M690.51,592.924c-3.023,10.779-1.266,10.955-8.71,19.364-3.631,4.1-23.738,21.037-27.481,25.045-5.339,5.715.229,8.343,4.19,10.017,2.591,1.094,4.138,6.789,8.075,2.6.39-.413,7.168-9.165,9.2-13,2.329-4.39,15.686-16.4,20.289-20.619,10.958-10.046,5.419-14.872,12.125-28.024,2.552-5.009,1.986-10.339,2.742-16.1.463-3.524-4.915-20.021-12.4-17.1-4.655,1.817-2.877,11.259-2.68,14.984.138,2.576.509,5.417-.13,7.909C694.427,583.109,691.939,587.832,690.51,592.924Z" transform="translate(-644.631 -554.757)" fill="#4b369d"/>
      </g>
      <g id="Leg" transform="translate(46.513 86.126)">
        <path id="Skin" d="M878.691,920.561l3.381,15.384-5.027,1.658-2.576-16.263S877.085,920.041,878.691,920.561Z" transform="translate(-855.701 -824.089)" fill="#eac2ab"/>
        <path id="Shoe" d="M899.889,977.789a48.559,48.559,0,0,1-10.971,1.819c-7.21.535-15.257.8-16.718-.268s-2.4-10.165,0-10.165,3.337,3.478,7.577.374c3.631-2.659,6.532,2.355,12.853,3.691S901.509,975.112,899.889,977.789Z" transform="translate(-852.933 -859.869)" fill="#fdc510"/>
        <path id="Leg_1_" d="M837.964,652.2a4.463,4.463,0,0,0-1.427-1.424c-5.035-4.013-2.407-10.105-3-15.483-1.848-16.754,1.333-26.555-4.967-43.671-4.288-11.647-5.445-19.332-6.482-32.271-.361-4.491,8.536-10.3,1.749-9.011a26.449,26.449,0,0,1-9.593-.073c-1.687-.3.034-.845-1.687-.3-5.861,1.871-10.222,12.364-10.3,16.406-.164,9.061,6.792,15.007,8.692,22.932,3.337,13.918,8.582,23.764,7.213,35.216-.671,5.612-1.45,11.207-2.2,16.809-.437,3.267-3.168,10.425-1.336,13.383,2.516,4.06,13.726.619,17.471.528C834.917,655.176,838.785,654.118,837.964,652.2Z" transform="translate(-802.259 -549.74)" fill="#5a54ff"/>
      </g>
      <path id="Body_1_" d="M814.23,396.229c-1.7-6.9.146-18.5-4.717-23.618a5.635,5.635,0,0,0-1.687-1.341c-6.111-2.752-9.8,2.264-12.424,6.612s-2.571,9.063-3.855,13.944c-1.461,5.549-1.167,11.319-1.271,17.048-.065,3.488.361,6.953.164,10.446a42.191,42.191,0,0,1-1.04,7.236c-.369,1.58-2.435,4.717-1.832,6.326.478,1.273,2.667.793,3.743.829a25.313,25.313,0,0,0,11.94-2.927c3.381-1.671,6.955-1.606,10.857-1.929a4.027,4.027,0,0,0,3.571-5.349c-2.077-8.341-1.471-15.647-2.329-21.536C815.07,400.068,814.7,398.142,814.23,396.229Z" transform="translate(-744.792 -330.948)" fill="#d7384e"/>
      <path id="Arm" d="M848.74,398.145s8.7,19.85,12.931,22.524,7.9,2.292,15.356-2.591a140.106,140.106,0,0,0,14.88-11.382c.71-.665,6.828-1.393,7.363-4.034s2.862-11.184.621-9.508-4.172,7.207-6.038,7.3.777-5.713-.92-4.777-1.817,2.474-2.428,3.782.195,2.781-3.514,6.03-15.839,11.73-19.33,11.1-16.278-19.444-16.8-20.884S848.74,398.145,848.74,398.145Z" transform="translate(-790.146 -347.567)" fill="#eac2ab"/>
      <path id="Body" d="M855.723,400.925s-5.287-15.823-11.571-12.634,3.038,20,3.038,20l10.209-5.37Z" transform="translate(-785.139 -343.813)" fill="#f44e4e"/>
    </g>
  </g>
</svg>
