<svg xmlns="http://www.w3.org/2000/svg" width="555.084" height="366.515" viewBox="0 0 555.084 366.515">
  <g id="_7_Social_Media" data-name="7 Social Media" transform="translate(-284.473 -218.374)">
    <g id="Nature" transform="translate(284.473 347.837)">
      <g id="Plant">
        <path id="Path_55800" data-name="Path 55800" d="M416.666,659.028a12.45,12.45,0,0,0,1.092-4.3c.916-13.865-13.613-11.615-22.214-15.656-8.033-3.775-8.372-12.53-8.944-20.252-.762-10.338-1.452-17.659-8.575-25.922-15.205-17.645-11.619-36.919-19.675-57.41-5.205-13.238-17.465-23.5-30.92-28.335-3.987-1.434-8.629-2.517-13.518-1.074-8.89,2.621-13.662,12.115-12.918,19.057s5.038,12.589,6.342,19.355a18.6,18.6,0,0,1-10.446,19.964c-4.3,1.94-10.1,2.81-11.944,6.464a5.38,5.38,0,0,0,.144,4.65c2.553,6.225,8.475,10.609,10.726,16.937,2.652,7.46-.695,13.144-3.514,19.964-1.263,3.063-1.912,6.73-.212,9.576,3.139,5.246,10.8,3.847,14.389,8.534,4.271,5.579-3.085,14.425-9.211,21.226s-11.222,17.127-4.078,20.207c2.224.961,5.138.848,7.749,1.218,11.736,1.651,15.728,12.242,18.353,21.714,2.833,10.212,13.825,13.536,21.254,19.576,8.376,6.806,11.051,20.158,25.043,14.312,9.58-4,13.938-14.2,19.364-22.3,5.945-8.868,12.273-17.632,16.048-27.7C403.942,671.346,413.405,666.339,416.666,659.028Z" transform="translate(-284.473 -505.398)" fill="#e3e5fc"/>
        <g id="Group_8650" data-name="Group 8650" transform="translate(47.851 74.013)">
          <g id="Group_8647" data-name="Group 8647">
            <path id="Path_55801" data-name="Path 55801" d="M423.067,820.126a.631.631,0,0,1-.618-.5L390.573,670.255a.634.634,0,1,1,1.24-.266L423.69,819.36a.634.634,0,0,1-.487.753A.693.693,0,0,1,423.067,820.126Z" transform="translate(-390.559 -669.486)" fill="#fff"/>
          </g>
          <g id="Group_8648" data-name="Group 8648" transform="translate(11.568 19.496)">
            <path id="Path_55802" data-name="Path 55802" d="M416.84,745.722a.948.948,0,0,1-.113-.009.634.634,0,0,1-.51-.735l5.7-31.75a.633.633,0,1,1,1.245.226l-5.7,31.75A.633.633,0,0,1,416.84,745.722Z" transform="translate(-416.207 -712.709)" fill="#fff"/>
          </g>
          <g id="Group_8649" data-name="Group 8649" transform="translate(5.57 82.305)">
            <path id="Path_55803" data-name="Path 55803" d="M420.848,878.107a.632.632,0,0,1-.519-.271l-17.307-24.88a.635.635,0,0,1,1.042-.726l17.307,24.88a.636.636,0,0,1-.158.884A.666.666,0,0,1,420.848,878.107Z" transform="translate(-402.908 -851.958)" fill="#fff"/>
          </g>
        </g>
      </g>
      <ellipse id="Ground" cx="232.008" cy="6.788" rx="232.008" ry="6.788" transform="translate(89.325 223.475)" fill="#e3e5fc"/>
      <g id="Plant_1_" transform="translate(366.216 45.104)">
        <path id="Path_55804" data-name="Path 55804" d="M1104.944,763.352c-1.385-2.7-2.535-5.652-2.332-8.678.37-5.5,4.921-9.625,8.845-13.5s7.781-9.1,6.3-14.411c-1.425-5.1-6.987-7.591-11.7-10.013s-9.747-6.725-8.71-11.917c1.489-7.438,13.757-8.6,15.088-16.067.482-2.7-.726-5.39-1.9-7.875l-12.03-25.426c-1.836-3.879-3.482-9.017-.411-12.012,2.07-2.016,5.322-1.971,8.033-2.963,7.036-2.58,9.147-11.267,10.762-18.588s5.377-15.945,12.851-16.486a14.4,14.4,0,0,1,8.178,2.4,31.6,31.6,0,0,1,15.07,28.926c-.37,4.889-1.768,10.347,1.119,14.312,1.5,2.061,3.884,3.247,5.985,4.686a26.476,26.476,0,0,1,10.952,25.453c-1.051,6.567-4.551,13.559-1.466,19.449,3.455,6.59,13.347,7.713,16.626,14.389,2.7,5.494-.37,12.025-3.915,17.018s-7.835,10.176-7.681,16.3c.077,3.167,1.376,6.18,1.719,9.328.88,8.029-4.51,15.467-10.767,20.577-8.078,6.6-20.333,13.608-31,10.072C1122.359,784.286,1110.8,774.755,1104.944,763.352Z" transform="translate(-1096.386 -605.396)" fill="#a7adff"/>
        <g id="Group_8651" data-name="Group 8651" transform="translate(37.861 62.477)">
          <path id="Path_55805" data-name="Path 55805" d="M1190.711,865.955a.637.637,0,0,1-.631-.582l-9.752-120.783a.635.635,0,0,1,.582-.681.618.618,0,0,1,.681.582l9.752,120.783a.635.635,0,0,1-.582.681Z" transform="translate(-1180.326 -743.909)" fill="#fff"/>
        </g>
        <g id="Group_8652" data-name="Group 8652" transform="translate(40.706 76.299)">
          <path id="Path_55806" data-name="Path 55806" d="M1187.268,797.2a.634.634,0,0,1-.5-1.028l17.131-21.38a.634.634,0,0,1,.992.789l-17.131,21.38A.634.634,0,0,1,1187.268,797.2Z" transform="translate(-1186.633 -774.553)" fill="#fff"/>
        </g>
        <g id="Group_8653" data-name="Group 8653" transform="translate(44.797 117.976)">
          <path id="Path_55807" data-name="Path 55807" d="M1196.338,889.6a.634.634,0,0,1-.5-1.028l17.131-21.38a.634.634,0,0,1,.992.789l-17.131,21.38A.634.634,0,0,1,1196.338,889.6Z" transform="translate(-1195.703 -866.953)" fill="#fff"/>
        </g>
        <g id="Group_8654" data-name="Group 8654" transform="translate(26.732 109.084)">
          <path id="Path_55808" data-name="Path 55808" d="M1172.291,862.286a.63.63,0,0,1-.415-.153l-16-13.78a.633.633,0,1,1,.825-.961l16,13.78a.635.635,0,0,1,.068.893A.624.624,0,0,1,1172.291,862.286Z" transform="translate(-1155.652 -847.238)" fill="#fff"/>
        </g>
      </g>
      <g id="Plant_2_" transform="translate(414.905 101.437)">
        <path id="Path_55809" data-name="Path 55809" d="M1205.932,825.709c-.857-1.777-1.736-3.658-1.583-5.625.217-2.747,2.368-4.917,4.524-6.635,4.9-3.911,10.546-6.924,14.925-11.416s7.366-11.15,5.241-17.05c-1.673-4.646-6.247-8.187-6.549-13.117-.406-6.527,6.594-10.753,9.883-16.4,2.738-4.7,2.837-10.446,4.5-15.629s6.215-10.4,11.569-9.427c5.891,1.069,7.979,8.435,8.051,14.425s-.253,12.945,4.312,16.82c1.579,1.34,3.635,2.165,4.858,3.839,1.109,1.525,1.335,3.5,1.529,5.377,1.064,10.446,1.9,21.872-3.978,30.568-1.344,1.989-3.054,3.865-3.523,6.224-1.155,5.832,5.724,10.929,4.781,16.8-.8,4.98-6.567,7.3-9.594,11.34-3.437,4.583-3.144,11.191-6.63,15.733-5.2,6.77-19.95,8.151-26.761,3.022C1213.767,848.736,1209.942,834,1205.932,825.709Z" transform="translate(-1204.331 -730.288)" fill="#f44e4e"/>
        <g id="Group_8655" data-name="Group 8655" transform="translate(25.197 34.438)">
          <path id="Path_55810" data-name="Path 55810" d="M1260.828,900.426a.878.878,0,0,1-.1-.009.64.64,0,0,1-.523-.731l15.286-92.516a.616.616,0,0,1,.731-.523.641.641,0,0,1,.523.731l-15.286,92.516A.641.641,0,0,1,1260.828,900.426Z" transform="translate(-1260.193 -806.638)" fill="#fff"/>
        </g>
        <g id="Group_8656" data-name="Group 8656" transform="translate(35.843 48.542)">
          <path id="Path_55811" data-name="Path 55811" d="M1284.43,856.911a.631.631,0,0,1-.483-1.042l15.115-17.74a.634.634,0,1,1,.965.821l-15.115,17.74A.646.646,0,0,1,1284.43,856.911Z" transform="translate(-1283.797 -837.907)" fill="#fff"/>
        </g>
        <g id="Group_8657" data-name="Group 8657" transform="translate(20.647 83.573)">
          <path id="Path_55812" data-name="Path 55812" d="M1259.608,934.1a.636.636,0,0,1-.564-.343l-8.868-17.257a.635.635,0,0,1,1.132-.577l8.868,17.257a.635.635,0,0,1-.275.852A.679.679,0,0,1,1259.608,934.1Z" transform="translate(-1250.107 -915.573)" fill="#fff"/>
        </g>
      </g>
      <g id="Plant_3_" transform="translate(488.88 166.679)">
        <path id="Path_55813" data-name="Path 55813" d="M1370.308,918.168c2.291-2.927,6.856-4.79,6.613-8.5-.207-3.148-4.1-5.543-3.342-8.606.722-2.882,4.659-3.171,7.614-2.824.582-1.994.144-4.114-.059-6.179s-.086-4.366,1.326-5.891,4.479-1.443,5.137.523q1.57-4.432,3.144-8.859c.428-1.213,1.055-2.6,2.314-2.864,1.836-.383,3.076,2.034,2.787,3.888s-1.376,3.572-1.308,5.449a4.682,4.682,0,0,0,4.736,4.335c-2.449,1.908-5.156,5.1-3.446,7.686.862,1.3,2.783,2.386,2.215,3.838s-3.166,1.317-3.487,2.842c-.433,2.03,3.884,2.972,3.072,4.885-2.661-.419-4.962,3.112-3.5,5.377,1.606,2.49,5.543,2.12,7.686,4.168a5.882,5.882,0,0,1,1.146,5.945c-2.481,7.984-11.818,17.578-20.577,14.443C1375.419,935.326,1363.646,926.671,1370.308,918.168Z" transform="translate(-1368.334 -874.93)" fill="#fdc510"/>
        <g id="Group_8658" data-name="Group 8658" transform="translate(15.842 18.934)">
          <path id="Path_55814" data-name="Path 55814" d="M1404.094,962.05h-.049a.639.639,0,0,1-.587-.681l3.288-43.874a.614.614,0,0,1,.681-.586.639.639,0,0,1,.586.681l-3.288,43.874A.635.635,0,0,1,1404.094,962.05Z" transform="translate(-1403.457 -916.908)" fill="#fff"/>
        </g>
        <g id="Group_8659" data-name="Group 8659" transform="translate(9.156 37.809)">
          <path id="Path_55815" data-name="Path 55815" d="M1397.338,966.6a.619.619,0,0,1-.4-.144l-8.069-6.576a.635.635,0,1,1,.8-.983l8.069,6.576a.636.636,0,0,1-.4,1.128Z" transform="translate(-1388.634 -958.754)" fill="#fff"/>
        </g>
        <g id="Group_8660" data-name="Group 8660" transform="translate(16.943 46.238)">
          <path id="Path_55816" data-name="Path 55816" d="M1406.53,989a.628.628,0,0,1-.492-.234.637.637,0,0,1,.095-.893l12.747-10.293a.635.635,0,1,1,.8.988l-12.747,10.293A.649.649,0,0,1,1406.53,989Z" transform="translate(-1405.898 -977.442)" fill="#fff"/>
        </g>
      </g>
      <g id="Plant_4_" transform="translate(69.564 62.841)">
        <path id="Path_55817" data-name="Path 55817" d="M446.39,717.623c-.843-2.936-3.482-5.395-5.444-8.038s-3.234-5.945-1.254-8.575a22.079,22.079,0,0,1,3.717-3.184c5.828-4.777,6.152-11.953,4.308-18.2s-5.512-12.2-6.621-18.547c-1.024-5.877,1.1-12.864,8.4-15.453a19.078,19.078,0,0,1,16.445,2.4,13.068,13.068,0,0,1,5.543,11.984c-.176,1.737-.622,3.636.668,5.1,2.544,2.9,9.174,1.588,12.792,3.8,3.094,1.89,2.643,5.444,1.34,8.232s-3.207,5.7-2.124,8.538c1.34,3.5,6.9,5.688,7.46,9.3.23,1.479-.447,3,0,4.452,1.249,4.091,10.577,6.22,8.629,10.167-1.511,3.063-8.426,2.688-10.559,5.548-2.269,3.036,2.742,6.545,2.115,9.973a7.612,7.612,0,0,1-1.912,3.216q-8.572,10.264-17.149,20.523a18.669,18.669,0,0,1-3.509,3.5c-8.778,6.2-22.142,2.21-23.635-5.755a115.392,115.392,0,0,1-1.926-12.111C443.269,728.8,448.009,723.266,446.39,717.623Z" transform="translate(-438.699 -644.718)" fill="#a7adff"/>
        <g id="Group_8661" data-name="Group 8661" transform="translate(24.931 43.62)">
          <rect id="Rectangle_1668" data-name="Rectangle 1668" width="1.267" height="121.176" transform="matrix(0.998, -0.06, 0.06, 0.998, 0, 0.076)" fill="#4b369d"/>
        </g>
        <g id="Group_8662" data-name="Group 8662" transform="translate(27.214 57.485)">
          <rect id="Rectangle_1669" data-name="Rectangle 1669" width="27.397" height="1.267" transform="translate(0 21.027) rotate(-50.128)" fill="#4b369d"/>
        </g>
        <g id="Group_8663" data-name="Group 8663" transform="translate(13.066 89.557)">
          <rect id="Rectangle_1670" data-name="Rectangle 1670" width="1.267" height="21.123" transform="matrix(0.668, -0.744, 0.744, 0.668, 0, 0.943)" fill="#4b369d"/>
        </g>
      </g>
      <path id="Plant_5_" d="M339.544,985.683a13.4,13.4,0,0,1-3.324-6.518,2.315,2.315,0,0,1,.262-1.723,2.149,2.149,0,0,1,1.335-.717c3.581-.767,6.942,1.858,9.531,4.452a91.152,91.152,0,0,1,12.142,15.1c-2.093-3.257-3.193-9.5-2.7-13.333a.6.6,0,0,1,.167-.41.54.54,0,0,1,.442-.063c1.1.212,1.8,1.281,2.323,2.273a50.487,50.487,0,0,1,4.005,10.054c-.6-2.16,1.168-4.763,2.765-6.053,2.86-2.3,2.251.911,1.628,2.8-.609,1.849-4.65,9.093-7.533,7.474-.528-.3-.659-1.913-1.092-2.436a5.548,5.548,0,0,0-2.887-1.534c-2.9-.9-5.931-1.276-8.669-2.693A27.781,27.781,0,0,1,339.544,985.683Z" transform="translate(-312.852 -764.057)" fill="#a7adff"/>
      <path id="Plant_6_" d="M1087.136,992.454c.365-3.726.356-7.181,1.579-10.816a4.934,4.934,0,0,1,2.161-3.094.849.849,0,0,1,.7-.081.954.954,0,0,1,.415.474c6.333,12.133-10.663,18.958-18.417,9.833a3.666,3.666,0,0,1-1-1.949,2.736,2.736,0,0,1,2.517-2.679,5.7,5.7,0,0,1,3.784,1.227c2.95,2.043,4.912,5.192,6.788,8.245a23.007,23.007,0,0,1-3.807-13.41c.023-.708.262-1.615.97-1.673a1.4,1.4,0,0,1,.92.374,9.883,9.883,0,0,1,3.424,6.265A27.749,27.749,0,0,1,1087.136,992.454Z" transform="translate(-717.097 -765.059)" fill="#f44e4e"/>
      <path id="Plant_7_" d="M494.716,963.09a1.143,1.143,0,0,1,.519.144,2.212,2.212,0,0,1,.884,1.588c1.2,5.607,1.164,4.231.568,11.588,1.254-4.592.758-3.789,3.1-7.934a5.5,5.5,0,0,1,1.75-2.115c5.119-3.135.162,10.753-.7,12.345-3.211,5.909-9.459,7.37-15.521,5.2-5.318-1.908-10.4-6.049-12.3-11.466-.171-.487-.3-1.1.068-1.47a1.408,1.408,0,0,1,1-.293c3.211,0,6.22,1.628,8.678,3.694s4.488,4.587,6.8,6.815c1.637,1.579,5.25,1.488,7.506,1.759,3.839.465,5.354-1.024,8.687-2.986a4.686,4.686,0,0,1,2.363-.807,1.9,1.9,0,0,1,1.894,1.367,2.4,2.4,0,0,1-.293,1.452c-2.729,5.764-10.167,4.989-13.446.388-3.126-4.389-5.142-11.7-3.645-16.96C492.93,964.33,493.769,963.072,494.716,963.09Z" transform="translate(-387.88 -756.646)" fill="#fdc510"/>
      <path id="Plant_8_" d="M1472.833,983.09a.793.793,0,0,1,.361.1,1.541,1.541,0,0,1,.613,1.11c.834,3.915.812,2.954.4,8.087.875-3.207.528-2.643,2.165-5.539a3.846,3.846,0,0,1,1.222-1.479c3.572-2.188.113,7.5-.492,8.615-2.242,4.123-6.6,5.147-10.83,3.626-3.712-1.331-7.257-4.222-8.583-8a.994.994,0,0,1,.05-1.028.969.969,0,0,1,.7-.2,9.656,9.656,0,0,1,6.053,2.58c1.709,1.443,3.13,3.2,4.745,4.759,1.141,1.1,3.662,1.037,5.237,1.227,2.679.325,3.735-.717,6.062-2.084a3.25,3.25,0,0,1,1.651-.564,1.331,1.331,0,0,1,1.322.952,1.667,1.667,0,0,1-.2,1.01c-1.9,4.023-7.1,3.482-9.382.271-2.183-3.063-3.586-8.164-2.544-11.836C1471.588,983.956,1472.175,983.076,1472.833,983.09Z" transform="translate(-928.44 -767.625)" fill="#a7adff"/>
    </g>
    <g id="Characters" transform="translate(437.303 218.374)">
      <g id="Man" transform="translate(0)">
        <g id="Bag" transform="translate(29.864 71.855)">
          <path id="Path_55818" data-name="Path 55818" d="M719.84,435.55l51.826-57.87-7.325,17.1L722.889,435.55Z" transform="translate(-706.16 -377.68)" fill="#4b369d"/>
          <path id="Path_55819" data-name="Path 55819" d="M731.788,560.944l-34.718-13.36a11.838,11.838,0,0,1-6.775-15.255l10.077-26.188a11.838,11.838,0,0,1,15.255-6.775l34.718,13.36a11.838,11.838,0,0,1,6.775,15.255l-10.077,26.188A11.836,11.836,0,0,1,731.788,560.944Z" transform="translate(-689.512 -444.049)" fill="#4b369d"/>
        </g>
        <path id="Phone" d="M1012.77,379.035l20.469-34.424s7.984-4.551,6.274,1.574S1019.739,382,1019.739,382Z" transform="translate(-837.099 -286.779)" fill="#4b369d"/>
        <g id="Head" transform="translate(94.538)">
          <path id="Neck" d="M856.242,352.9l-6.1,19.585-17.063,2.052s12.814-11.3,14.316-23.883S856.242,352.9,856.242,352.9Z" transform="translate(-832.997 -288.209)" fill="#d4a79a"/>
          <path id="Face" d="M890.6,263.326s2.251,5.345-4.542,18.259-15.128,23.3-19.061,21.421c-10.879-5.2-12.846-14.312-15.061-22.273-2.711-9.761,12.233-28.1,12.233-28.1l10.388-2.612Z" transform="translate(-843.17 -235.746)" fill="#eac2ab"/>
          <path id="Hair" d="M844.562,251.971a144.519,144.519,0,0,0-1.114,17.555,1.327,1.327,0,0,1-.262.934c-.568.672-4.849-6.5-5.169-7.055-2.1-3.617-5.313-8.038-4.042-12.418a19.72,19.72,0,0,0,1.11-3.635c.208-2.382-1.628-3.893-2.052-6.031a12.684,12.684,0,0,1,.749-6.125c1.168-3.563,3.541-7.465,6.8-9.481,2.566-1.588,4.741-.812,7.307-1.7,1.353-.469,1.962-1.994,2.873-3.1a7.861,7.861,0,0,1,5.886-2.53c2.715-.077,6.635.465,8.949,2.034,2.945,2,3.239,7.28,6.022,8.755a4.116,4.116,0,0,0,1.565.361c5.192.505,10.117.271,14.276,3.825,6.567,5.611,2.066,25.457-7.623,19.842-1.11-.645-2.052-1.538-3.112-2.264-5.1-3.5-11.57,2.368-15-6.5-.613-1.583-11.209-2.147-11.349,2.179C850.2,252.265,844.562,251.971,844.562,251.971Z" transform="translate(-832.896 -218.374)" fill="#4b369d"/>
          <path id="Ear" d="M858.237,289.9s-3.013-5.841-4.4,1.556,2.048,9.865,2.048,9.865Z" transform="translate(-844.212 -256.439)" fill="#eac2ab"/>
        </g>
        <g id="Leg_2_" transform="translate(0 151.727)">
          <path id="Skin_1_" d="M665.2,894.327,649.74,915.892,642,911.462l17.469-21.542S664.043,891.733,665.2,894.327Z" transform="translate(-633.566 -738.744)" fill="#d4a79a"/>
          <path id="Shoe_1_" d="M658.758,962.184c-.388.46-3.36-.239-3.811-.307-4.655-.69-11.845-1.516-15.4-4.853-3.464-3.252-5.232-8.16-8.151-11.872-2.057-2.612-4.921-4.461-7.523-6.5-2.869-2.251,5.9-15.6,9.35-12.648,2.792,2.391.415,7.366,8.43,7.975,6.865.523.988,9.49,7.92,16.536C655.7,956.748,662.985,957.163,658.758,962.184Z" transform="translate(-623.302 -758.32)" fill="#f3aa02"/>
          <path id="Leg_3_" d="M718.741,620.991c-5.246,18.705-2.2,19.012-15.115,33.6-6.3,7.118-41.195,36.508-47.69,43.464-9.265,9.919.4,14.479,7.271,17.384,4.5,1.9,7.181,11.782,14.014,4.506.677-.717,12.44-15.9,15.972-22.557,4.042-7.618,27.221-28.457,35.209-35.782,19.016-17.433,9.4-25.809,21.042-48.633,4.429-8.692,3.446-17.943,4.759-27.938.8-6.116-8.529-34.745-21.511-29.684-8.078,3.153-4.993,19.54-4.65,26,.239,4.47.884,9.4-.226,13.726C725.539,603.96,721.222,612.155,718.741,620.991Z" transform="translate(-639.122 -554.757)" fill="#4b369d"/>
        </g>
        <g id="Leg" transform="translate(80.719 149.464)">
          <path id="Skin" d="M881.8,920.651l5.868,26.7-8.723,2.878L874.47,922S879.008,919.749,881.8,920.651Z" transform="translate(-841.899 -753.233)" fill="#eac2ab"/>
          <path id="Shoe" d="M921.333,984.411s-6.527,2.228-19.039,3.157-26.477,1.394-29.012-.465-4.172-17.641,0-17.641,5.792,6.035,13.148.65c6.3-4.614,11.335,4.086,22.3,6.4S924.144,979.765,921.333,984.411Z" transform="translate(-839.846 -779.773)" fill="#fdc510"/>
          <path id="Leg_1_" d="M864.221,727.554a7.747,7.747,0,0,0-2.476-2.472c-8.737-6.964-4.177-17.537-5.205-26.869-3.207-29.075,2.314-46.084-8.62-75.786-7.442-20.212-9.45-33.549-11.249-56-.627-7.794,14.813-17.866,3.036-15.638a45.9,45.9,0,0,1-16.648-.126c-2.927-.514.059-1.466-2.927-.514-10.171,3.248-17.74,21.457-17.866,28.471-.284,15.724,11.786,26.044,15.083,39.8,5.792,24.154,14.894,41.24,12.517,61.113-1.164,9.738-2.517,19.449-3.816,29.17-.758,5.67-5.5,18.092-2.318,23.225,4.366,7.045,23.82,1.073,30.32.916C858.934,732.714,865.646,730.878,864.221,727.554Z" transform="translate(-802.259 -549.74)" fill="#5a54ff"/>
        </g>
        <path id="Body_1_" d="M833.918,415.163c-2.95-11.971.253-32.106-8.187-40.987a9.778,9.778,0,0,0-2.927-2.327c-10.6-4.777-17,3.929-21.56,11.475s-4.461,15.728-6.689,24.2c-2.535,9.63-2.025,19.643-2.206,29.585-.113,6.053.627,12.066.284,18.128a73.207,73.207,0,0,1-1.8,12.557c-.64,2.742-4.226,8.187-3.18,10.979.83,2.21,4.628,1.376,6.5,1.439,7.221.239,14.3-1.9,20.721-5.079,5.868-2.9,12.07-2.788,18.841-3.347,3.36-.28,7.718-3.175,6.2-9.283-3.6-14.474-2.553-27.154-4.042-37.374C835.375,421.825,834.734,418.483,833.918,415.163Z" transform="translate(-713.415 -301.874)" fill="#d7384e"/>
        <path id="Arm" d="M848.74,401.974s15.1,34.447,22.44,39.088,13.7,3.978,26.648-4.5a243.14,243.14,0,0,0,25.823-19.752c1.231-1.155,11.849-2.418,12.778-7s4.966-19.409,1.078-16.5-7.239,12.508-10.478,12.675,1.349-9.914-1.6-8.29-3.153,4.294-4.213,6.563.338,4.826-6.1,10.464-27.487,20.356-33.545,19.26-28.25-33.743-29.156-36.242S848.74,401.974,848.74,401.974Z" transform="translate(-747.055 -314.201)" fill="#eac2ab"/>
        <path id="Body" d="M865.834,410.529s-9.174-27.46-20.081-21.926,5.273,34.713,5.273,34.713L868.743,414Z" transform="translate(-743.342 -311.416)" fill="#f44e4e"/>
      </g>
    </g>
  </g>
</svg>
