<svg id="store" xmlns="http://www.w3.org/2000/svg" width="52.295" height="50.344" viewBox="0 0 52.295 50.344">
  <defs>
    <style>
      .cls-1 {
        fill: #ff4f04;
      }
    </style>
  </defs>
  <path id="Path_62854" data-name="Path 62854" class="cls-1" d="M31.809,20H7.151a1.489,1.489,0,0,1-1.291-2.229L11.788,7.395a1.489,1.489,0,0,1,1.291-.75h18.73a1.489,1.489,0,1,1,0,2.978H13.946l-4.228,7.4H31.809a1.489,1.489,0,1,1,0,2.978Z" transform="translate(-5.662 -6.644)"/>
  <path id="Path_62855" data-name="Path 62855" class="cls-1" d="M56.468,20H31.809a1.489,1.489,0,1,1,0-2.978H53.9l-4.228-7.4H31.809a1.489,1.489,0,1,1,0-2.978H50.537a1.489,1.489,0,0,1,1.291.75L57.76,17.773A1.489,1.489,0,0,1,56.47,20ZM13.316,31.089a7.663,7.663,0,0,1-7.654-7.654V18.513a1.489,1.489,0,1,1,2.978,0v4.922a4.676,4.676,0,1,0,9.351,0V18.513a1.489,1.489,0,1,1,2.978,0v4.922A7.662,7.662,0,0,1,13.316,31.089Z" transform="translate(-5.662 -6.644)"/>
  <path id="Path_62856" data-name="Path 62856" class="cls-1" d="M25.735,31.164a7.663,7.663,0,0,1-7.654-7.654V18.589a1.489,1.489,0,0,1,2.978,0v4.922a4.676,4.676,0,1,0,9.351,0V18.589a1.489,1.489,0,0,1,2.978,0v4.922A7.662,7.662,0,0,1,25.735,31.164Z" transform="translate(-5.752 -6.72)"/>
  <path id="Path_62857" data-name="Path 62857" class="cls-1" d="M38.153,31.164A7.662,7.662,0,0,1,30.5,23.51V18.589a1.489,1.489,0,0,1,2.978,0v4.922a4.676,4.676,0,1,0,9.351,0V18.589a1.489,1.489,0,0,1,2.978,0v4.922a7.663,7.663,0,0,1-7.654,7.653Z" transform="translate(-5.842 -6.72)"/>
  <path id="Path_62858" data-name="Path 62858" class="cls-1" d="M50.572,31.164a7.662,7.662,0,0,1-7.653-7.654V18.589a1.489,1.489,0,0,1,2.978,0v4.922a4.676,4.676,0,1,0,9.351,0V18.589a1.489,1.489,0,1,1,2.978,0v4.922A7.663,7.663,0,0,1,50.572,31.164Z" transform="translate(-5.932 -6.72)"/>
  <path id="Path_62859" data-name="Path 62859" class="cls-1" d="M44.156,20a1.489,1.489,0,0,1-1.426-1.06L39.609,8.563A1.489,1.489,0,0,1,42.461,7.7l3.121,10.379a1.489,1.489,0,0,1-.993,1.854A1.464,1.464,0,0,1,44.156,20ZM19.5,20a1.464,1.464,0,0,1-.43-.064,1.489,1.489,0,0,1-.993-1.854L21.194,7.7a1.489,1.489,0,1,1,2.852.859L20.925,18.941A1.489,1.489,0,0,1,19.5,20Zm12.328,0a1.489,1.489,0,0,1-1.489-1.489V8.134a1.489,1.489,0,0,1,2.978,0V18.513A1.489,1.489,0,0,1,31.828,20Zm0,36.985H9.673A1.489,1.489,0,0,1,8.184,55.5V28.387a1.489,1.489,0,1,1,2.978,0V54.01H31.828a1.489,1.489,0,1,1,0,2.978Z" transform="translate(-5.68 -6.644)"/>
  <path id="Path_62860" data-name="Path 62860" class="cls-1" d="M54.144,57.136H31.989a1.489,1.489,0,1,1,0-2.978H52.655V28.534a1.489,1.489,0,0,1,2.978,0V55.647a1.489,1.489,0,0,1-1.489,1.489Z" transform="translate(-5.842 -6.792)"/>
  <path id="Path_62861" data-name="Path 62861" class="cls-1" d="M43.7,56.833a1.489,1.489,0,0,1-1.489-1.489V39.593H21.6V55.236a1.489,1.489,0,0,1-2.978,0V38.1a1.489,1.489,0,0,1,1.489-1.489H43.7A1.489,1.489,0,0,1,45.187,38.1V55.343A1.489,1.489,0,0,1,43.7,56.833Z" transform="translate(-5.756 -6.861)"/>
</svg>
