<svg xmlns="http://www.w3.org/2000/svg" width="437.551" height="471.693" viewBox="0 0 437.551 471.693">
  <g id="Group_10159" data-name="Group 10159" transform="translate(-4819.002 -7869)">
    <g id="_2_Effective_UI" data-name="2 Effective UI" transform="translate(4819.002 7869)">
      <g id="UI" transform="translate(0 0)">
        <g id="Phone" transform="translate(253.977)">
          <path id="Path_64450" data-name="Path 64450" d="M1133.094,490.781H993.588a22.1,22.1,0,0,1-22.034-22.034V141.224a22.1,22.1,0,0,1,22.034-22.034H1133.1a22.1,22.1,0,0,1,22.034,22.034V468.748a22.1,22.1,0,0,1-22.035,22.034Z" transform="translate(-971.554 -119.19)" fill="#a7adff"/>
          <path id="Path_64451" data-name="Path 64451" d="M1133.564,469.107H1017.358a22.1,22.1,0,0,1-22.034-22.034V166.7a22.1,22.1,0,0,1,22.034-22.034h116.21A22.1,22.1,0,0,1,1155.6,166.7v280.37A22.1,22.1,0,0,1,1133.564,469.107Z" transform="translate(-983.675 -132.183)" fill="#e3e5fc"/>
          <path id="Path_64452" data-name="Path 64452" d="M1156.552,133.337h-34.584a1.534,1.534,0,0,1-1.529-1.529h0a1.534,1.534,0,0,1,1.529-1.529h34.584a1.534,1.534,0,0,1,1.529,1.529h0A1.534,1.534,0,0,1,1156.552,133.337Z" transform="translate(-1047.475 -124.844)" fill="#e3e5fc"/>
          <circle id="Ellipse_1038" data-name="Ellipse 1038" cx="9.522" cy="9.522" r="9.522" transform="translate(82.261 343.589)" fill="#e3e5fc"/>
          <path id="Path_64453" data-name="Path 64453" d="M1142.335,692.508h-87.409a14.2,14.2,0,0,1-14.156-14.156v-5.5a14.2,14.2,0,0,1,14.156-14.156h87.409a14.2,14.2,0,0,1,14.156,14.156v5.5A14.2,14.2,0,0,1,1142.335,692.508Z" transform="translate(-1006.745 -394.049)" fill="#4f39f4"/>
          <path id="Path_64456" data-name="Path 64456" d="M1152.891,433.885h-83.854a4.106,4.106,0,0,1-4.092-4.092h0a4.106,4.106,0,0,1,4.093-4.092h83.854a4.106,4.106,0,0,1,4.092,4.092h0A4.106,4.106,0,0,1,1152.891,433.885Z" transform="translate(-1019.176 -275.489)" fill="#a7adff"/>
          <path id="Path_64457" data-name="Path 64457" d="M1152.891,472.114h-83.854a4.106,4.106,0,0,1-4.092-4.092h0a4.106,4.106,0,0,1,4.093-4.092h83.854a4.106,4.106,0,0,1,4.092,4.092h0A4.106,4.106,0,0,1,1152.891,472.114Z" transform="translate(-1019.221 -294.97)" fill="#fff"/>
          <path id="Path_64458" data-name="Path 64458" d="M1152.891,510.335h-83.854a4.106,4.106,0,0,1-4.092-4.092h0a4.106,4.106,0,0,1,4.093-4.092h83.854a4.106,4.106,0,0,1,4.092,4.092h0A4.1,4.1,0,0,1,1152.891,510.335Z" transform="translate(-1019.176 -314.473)" fill="#fff"/>
          <g id="Group_10154" data-name="Group 10154" transform="translate(79.278 232.51)">
            <path id="Path_64459" data-name="Path 64459" d="M1156.939,609.577h0a1.222,1.222,0,0,1-.177-1.72l11.218-13.776a1.222,1.222,0,0,1,1.72-.176h0a1.222,1.222,0,0,1,.176,1.72L1158.658,609.4a1.223,1.223,0,0,1-1.72.176Z" transform="translate(-1145.136 -593.631)" fill="#fff"/>
            <path id="Path_64460" data-name="Path 64460" d="M1146.535,609.577h0a1.222,1.222,0,0,0,.176-1.72l-11.218-13.776a1.222,1.222,0,0,0-1.72-.176h0a1.222,1.222,0,0,0-.176,1.72l11.218,13.776a1.221,1.221,0,0,0,1.72.176Z" transform="translate(-1133.323 -593.631)" fill="#fff"/>
          </g>
          <ellipse id="Ellipse_1040" data-name="Ellipse 1040" cx="84.826" cy="12.511" rx="84.826" ry="12.511" transform="translate(6.956 437.888)" fill="#e3e5fc"/>
        </g>
        <g id="Button" transform="translate(0 123.601)">
          <g id="Group_10156" data-name="Group 10156">
            <path id="Path_64461" data-name="Path 64461" d="M561.139,400.412H467.966a14.548,14.548,0,0,1-14.506-14.506h0A14.548,14.548,0,0,1,467.966,371.4h93.177a14.548,14.548,0,0,1,14.506,14.506h0a14.556,14.556,0,0,1-14.51,14.506Z" transform="translate(-453.46 -371.4)" fill="#e3e5fc"/>
            <g id="Group_10155" data-name="Group 10155" transform="translate(98.444 7.497)">
              <path id="Path_64462" data-name="Path 64462" d="M663.944,394.658h0a.744.744,0,0,1-1.039.108l-8.3-6.758a.744.744,0,0,1-.108-1.039h0a.744.744,0,0,1,1.039-.108l8.3,6.758A.744.744,0,0,1,663.944,394.658Z" transform="translate(-654.337 -386.698)" fill="#fff"/>
              <path id="Path_64463" data-name="Path 64463" d="M663.944,400.925h0a.744.744,0,0,0-1.039-.107l-8.3,6.758a.744.744,0,0,0-.108,1.039h0a.744.744,0,0,0,1.039.108l8.3-6.758A.744.744,0,0,0,663.944,400.925Z" transform="translate(-654.337 -393.815)" fill="#fff"/>
            </g>
          </g>
          <g id="Group_10158" data-name="Group 10158" transform="translate(0 41.896)">
            <path id="Path_64464" data-name="Path 64464" d="M525.466,476.287H463.158a9.727,9.727,0,0,1-9.7-9.7h0a9.727,9.727,0,0,1,9.7-9.7h62.308a9.727,9.727,0,0,1,9.7,9.7h0A9.721,9.721,0,0,1,525.466,476.287Z" transform="translate(-453.46 -456.89)" fill="#a7adff"/>
            <g id="Group_10157" data-name="Group 10157" transform="translate(65.833 5.006)">
              <path id="Path_64465" data-name="Path 64465" d="M594.216,472.429h0a.5.5,0,0,1-.7.069l-5.548-4.518a.5.5,0,0,1-.069-.7h0a.5.5,0,0,1,.7-.069l5.548,4.518A.5.5,0,0,1,594.216,472.429Z" transform="translate(-587.793 -467.104)" fill="#fff"/>
              <path id="Path_64466" data-name="Path 64466" d="M594.216,476.623h0a.5.5,0,0,0-.7-.069l-5.548,4.518a.5.5,0,0,0-.069.7h0a.5.5,0,0,0,.7.069l5.548-4.518A.5.5,0,0,0,594.216,476.623Z" transform="translate(-587.793 -471.866)" fill="#fff"/>
            </g>
          </g>
        </g>
      </g>
      <g id="Characters" transform="translate(97.838 69.831)">
        <g id="Man" transform="translate(0 0)">
          <path id="Arm_1_" d="M758.533,486.29s-11.154,14.741-11.825,25.449,27.616,14.982,27.616,14.982Z" transform="translate(-700.827 -376.215)" fill="#d4a79a"/>
          <g id="Head" transform="translate(53.675)">
            <path id="Neck" d="M815.818,396.288l-1.2,22.259L797.2,425.264s10.478-15.329,8.7-28.98S815.818,396.288,815.818,396.288Z" transform="translate(-780.256 -327.227)" fill="#d4a79a"/>
            <path id="Face" d="M827.829,299.537s3.793,5.028.093,20.441-9.708,28.581-14.354,27.65c-12.845-2.568-17.353-11.644-21.811-19.436-5.459-9.556,5.381-32.864,5.381-32.864L807.38,289.8Z" transform="translate(-776.696 -276.019)" fill="#eac2ab"/>
            <path id="Hair" d="M827.436,281.055c1.122-3.617-.851-8.243-3.479-10.478a4.9,4.9,0,0,0-3.573-1.284,11.266,11.266,0,0,1-2.856.4c-2.862-.475-3.2-4.695-5.861-5.552-1.98-.637-3.882,1.154-5.9,1.632a10.835,10.835,0,0,1-4.636-.372c-4.317-.906-8.323-2.977-12.746-3.514a18.51,18.51,0,0,0-11.011,1.784,16.3,16.3,0,0,0-7.4,9.39,13.358,13.358,0,0,0-.417,7.537c-.529-2.024-4.17.152-4.763.946-2.318,3.126-2.71,9.9-1.48,13.541.975,2.882,2.578,5.43,3.47,8.351,1.058,3.484,1.5,7.351,3.43,10.438a9.74,9.74,0,0,0,10.379,4.366,35.889,35.889,0,0,1-2.538-9.924c-.216-3.44-4.769-18.99,12.178-22.347,6.738-1.333,14.854,4.283,21.6,4.553a22.688,22.688,0,0,0,9.417-1.715c2.323-.941,4.582-4.406,5.861-6.939A4.685,4.685,0,0,0,827.436,281.055Z" transform="translate(-762.624 -261.692)" fill="#4b369d"/>
            <path id="Ear" d="M789.723,332.15s-4.734-5.346-4.215,2.813,4.793,9.845,4.793,9.845Z" transform="translate(-774.273 -296.738)" fill="#eac2ab"/>
          </g>
          <g id="Leg_2_" transform="translate(0 171.759)">
            <path id="Skin_1_" d="M691.332,968.709,681.07,995.654l-9.36-2.5,12.379-27.479S689.392,966.3,691.332,968.709Z" transform="translate(-662.59 -792.426)" fill="#d4a79a"/>
            <path id="Shoe_1_" d="M695.559,1042.121c-.333.559-3.645.333-4.141.338-5.111.074-12.967.446-17.363-2.509-4.283-2.882-7.037-7.831-10.821-11.3-2.661-2.441-6.057-3.921-9.2-5.65-3.474-1.911,3.592-17.76,7.807-15.2,3.411,2.078,1.735,7.821,10.434,7.077,7.454-.642,2.72,10,11.389,16.343C691.325,1036.83,699.213,1036,695.559,1042.121Z" transform="translate(-653.1 -813.767)" fill="#f3aa02"/>
            <path id="Leg_3_" d="M701.457,692.241a161.818,161.818,0,0,1-25.768,62.317c-6.3,9.277-13.036,18.221-19.559,27.34-9.3,13.007,22.225,16.05,29.987,18.4,5.077,1.534,12.629,1.926,12.291-1.99-.1-1.154-.985-2.284-1.715-3.391-6.65-10.159-.838-20.392,3.764-29.5,13.786-27.3,23.094-58.778,33.909-87.226,4.117-10.831,2.264-21.5,2.862-33.378.365-7.272-12.242-39.309-26.018-31.411-8.571,4.915-3.823,23.6-2.906,31.107.637,5.19,1.755,10.85.9,16.08C707.461,671.3,703.427,681.533,701.457,692.241Z" transform="translate(-653.778 -612.159)" fill="#4b369d"/>
          </g>
          <g id="Leg" transform="translate(59.209 172.039)">
            <path id="Skin" d="M810.619,990.132l6.376,29.007-9.478,3.126L802.66,991.6S807.6,989.156,810.619,990.132Z" transform="translate(-788.573 -805.061)" fill="#eac2ab"/>
            <path id="Shoe" d="M853.912,1055.222s-7.091,2.421-20.686,3.43-28.767,1.514-31.521-.5-4.533-19.167,0-19.167,6.292,6.557,14.285.705c6.846-5.013,12.316,4.44,24.234,6.959S856.965,1050.179,853.912,1055.222Z" transform="translate(-786.673 -829.711)" fill="#fdc510"/>
            <path id="Leg_1_" d="M820.646,805.925c-.456-1.063-1.651-1.857-2.69-2.685-9.492-7.567-7.174-19.108-5.655-29.194,3.6-23.926-.255-48.042-1.7-71.972a241.686,241.686,0,0,1,6.273-69.565c1.94-8.272,4.617-21.063-8.179-18.642a49.867,49.867,0,0,1-18.089-.137c-3.18-.559.061-1.593-3.18-.559-11.051,3.529-15.182,24.415-12.914,31.693,4.518,14.491,5.989,28.4,6.724,43.744,1.039,21.759,4.661,43.543,2.078,65.135-1.264,10.581-2.734,21.132-4.146,31.693-.823,6.16-5.974,19.657-2.519,25.234,4.744,7.655,25.882,1.166,32.943.995C814.9,811.527,822.19,809.537,820.646,805.925Z" transform="translate(-773.916 -612.73)" fill="#5a54ff"/>
          </g>
          <path id="Body_1_" d="M797.547,482.017c-3.2-13.007.274-34.883-8.895-44.534a10.622,10.622,0,0,0-3.18-2.529c-11.522-5.19-18.47,4.269-23.425,12.468s-4.847,17.089-7.268,26.292c-2.754,10.463-2.2,21.343-2.4,32.144-.122,6.577.681,13.109.309,19.7a79.553,79.553,0,0,1-1.961,13.644c-.7,2.977-4.592,8.895-3.455,11.928.9,2.4,5.028,1.495,7.057,1.563,7.846.259,15.535-2.066,22.514-5.518,6.376-3.151,11.963-8.037,19.314-8.645,3.651-.3,15.148,1.2,13.5-5.445-3.916-15.727-8.38-29.135-10-40.24C799.13,489.251,798.434,485.624,797.547,482.017Z" transform="translate(-701.018 -349.282)" fill="#d7384e"/>
          <path id="Arm" d="M856.677,490.158s13.452,14.885,15.643,12.771,42.421-45.1,44.435-49.776,6.832-18.216,6.326-20.945-1.784-2.436,3.548-3.4,15.466-1.2,14.642.872-5.038,2.244-5.038,2.244,5.46,1.337,3.4,2.445-8.931,2.034-8.263,4.018a28.924,28.924,0,0,1,1.3,10.379c-.364,3.847-1.847,5.59-6.307,8.331s-5.244.833-7.841,6.258-42.063,52.56-44.582,54.51-3.176,4.1-8.772-1.054-15.452-17.917-23.337-26.17c-7.234-7.566-10.207-18.221-10.207-18.221l11.7-1.725S844.7,478.813,856.677,490.158Z" transform="translate(-744.133 -346.538)" fill="#eac2ab"/>
          <path id="Body" d="M838.5,489.63s-9.282-30.056-21.264-24.317,4.86,37.838,4.86,37.838l19.475-9.679Z" transform="translate(-734.602 -365.147)" fill="#f44e4e"/>
        </g>
      </g>
    </g>
    <path id="Icon_awesome-user-circle" data-name="Icon awesome-user-circle" d="M35.894.562a35.882,35.882,0,1,1-.006,0Zm0,13.894A12.737,12.737,0,1,1,23.158,27.194,12.737,12.737,0,0,1,35.894,14.456Zm0,49.788a27.735,27.735,0,0,1-21.2-9.871,16.137,16.137,0,0,1,14.256-8.654,3.541,3.541,0,0,1,1.027.159,19.162,19.162,0,0,0,5.919,1,19.09,19.09,0,0,0,5.919-1,3.541,3.541,0,0,1,1.027-.159A16.137,16.137,0,0,1,57.1,54.374a27.735,27.735,0,0,1-21.2,9.87Z" transform="translate(5128.88 7921.726)" fill="#a7adff"/>
    <text id="UPDATE" transform="translate(5150.002 8153.649)" fill="#fff" font-size="8" font-family="Raleway" font-weight="500"><tspan x="0" y="0">UPDATE</tspan></text>
  </g>
</svg>
